<svg width="32" height="32" viewBox="0 0 32 32" fill="none" xmlns="http://www.w3.org/2000/svg">
<g clip-path="url(#clip0)">
<path d="M32 5.81816C32 4.21378 30.6946 2.90905 29.0909 2.90905H24.7273V0.727228C24.7273 0.325296 24.402 0 24 0C23.598 0 23.2727 0.325296 23.2727 0.727296V2.90912H10.1818V0.727296C10.1818 0.325296 9.85659 0 9.45459 0C9.05258 0 8.72729 0.325296 8.72729 0.727296V2.90912H2.90912C1.30541 2.90912 0 4.21378 0 5.81816V29.0909C0 30.6953 1.30541 32 2.90912 32H23.9987V31.9997L24.0001 32C24.189 32 24.3751 31.9262 24.5143 31.7869L31.7871 24.5142C31.9258 24.3749 31.9717 24.1892 31.9719 23.9999H32.0002V5.81816H32Z" fill="#303C42"/>
<path d="M2.90908 4.36328H8.72725V5.81781C7.92468 5.81781 7.27272 6.47051 7.27272 7.27233C7.27272 8.07415 7.92468 8.72692 8.72725 8.72692C9.52981 8.72692 10.1818 8.07422 10.1818 7.2724V4.36328H23.2727V5.81781C22.4701 5.81781 21.8182 6.47051 21.8182 7.27233C21.8182 8.07415 22.4702 8.72692 23.2727 8.72692C24.0752 8.72692 24.7272 8.07422 24.7272 7.2724V4.36328H29.0908C29.8935 4.36328 30.5454 5.01599 30.5454 5.81781V10.1814H1.45449V5.81781C1.45449 5.01599 2.10651 4.36328 2.90908 4.36328Z" fill="#D32F2F"/>
<path opacity="0.2" d="M23.2728 4.36328H10.1818V5.09058H23.2728V4.36328Z" fill="white"/>
<path opacity="0.2" d="M2.90917 5.09058H8.72733V4.36328H2.90917C2.1066 4.36328 1.45464 5.01599 1.45464 5.81781V6.5451C1.45458 5.74328 2.1066 5.09058 2.90917 5.09058Z" fill="white"/>
<path opacity="0.2" d="M29.091 4.36328H24.7274V5.09058H29.091C29.8936 5.09058 30.5455 5.74328 30.5455 6.5451V5.81781C30.5455 5.01599 29.8936 4.36328 29.091 4.36328Z" fill="white"/>
<path d="M23.2728 26.1821V30.5458H2.90917C2.1066 30.5458 1.45464 29.8931 1.45464 29.0913V11.6367H30.5455V23.2731H26.1819C24.5782 23.273 23.2728 24.5778 23.2728 26.1821Z" fill="white"/>
<path d="M24.7273 29.5163V26.1811C24.7273 25.3793 25.3793 24.7266 26.1818 24.7266H29.5171L24.7273 29.5163Z" fill="#E6E6E6"/>
<path d="M23.2727 30.5458V26.1821C23.2727 24.5778 24.5781 23.273 26.1818 23.273H30.5454V11.6367H1.45449L20.3636 30.5458H23.2727Z" fill="url(#paint0_linear)"/>
<path d="M13.0909 16C11.4872 16 10.1817 17.3047 10.1817 18.9091C10.1817 19.3111 10.507 19.6364 10.909 19.6364C11.311 19.6364 11.6363 19.3111 11.6363 18.9091C11.6363 18.1073 12.2884 17.4546 13.0909 17.4546C13.8934 17.4546 14.5454 18.1073 14.5454 18.9091C14.5454 19.7109 13.8934 20.3636 13.0909 20.3636C12.6889 20.3636 12.3636 20.6889 12.3636 21.0909C12.3636 21.4929 12.6889 21.8182 13.0909 21.8182C13.8934 21.8182 14.5454 22.4709 14.5454 23.2727C14.5454 24.0745 13.8934 24.7272 13.0909 24.7272C12.2883 24.7272 11.6363 24.0745 11.6363 23.2727C11.6363 22.8707 11.311 22.5454 10.909 22.5454C10.507 22.5454 10.1817 22.8707 10.1817 23.2727C10.1817 24.8771 11.4872 26.1818 13.0909 26.1818C14.6946 26.1818 16 24.8771 16 23.2727C16 22.4048 15.6179 21.6243 15.0128 21.0909C15.6179 20.5575 16 19.7769 16 18.909C16 17.3047 14.6946 16 13.0909 16Z" fill="#303C42"/>
<path d="M19.6363 16C19.6363 16 19.6363 16 19.6349 16L18.1831 16.0014C17.7811 16.0021 17.4558 16.3274 17.4558 16.7294C17.4558 17.1307 17.7811 17.456 18.1831 17.456C18.1831 17.456 18.1831 17.456 18.1846 17.456L18.909 17.4553V25.4546C18.909 25.8566 19.2343 26.1819 19.6363 26.1819C20.0383 26.1819 20.3636 25.8566 20.3636 25.4546V16.7273C20.3636 16.5341 20.2869 16.3494 20.1505 16.2131C20.0142 16.0767 19.8295 16 19.6363 16Z" fill="#303C42"/>
<path d="M32 5.81816C32 4.21378 30.6946 2.90905 29.0909 2.90905H24.7273V0.727228C24.7273 0.325296 24.402 0 24 0C23.598 0 23.2727 0.325296 23.2727 0.727296V2.90912H10.1818V0.727296C10.1818 0.325296 9.85659 0 9.45459 0C9.05258 0 8.72729 0.325296 8.72729 0.727296V2.90912H2.90912C1.30541 2.90912 0 4.21378 0 5.81816V29.0909C0 30.6953 1.30541 32 2.90912 32H23.9987V31.9997L24.0001 32C24.189 32 24.3751 31.9262 24.5143 31.7869L31.7871 24.5142C31.9258 24.3749 31.9717 24.1892 31.9719 23.9999H32.0002V5.81816H32Z" fill="url(#paint1_linear)"/>
</g>
<defs>
<linearGradient id="paint0_linear" x1="8.72733" y1="4.36533" x2="29.0909" y2="24.7289" gradientUnits="userSpaceOnUse">
<stop stop-opacity="0.1"/>
<stop offset="1" stop-opacity="0"/>
</linearGradient>
<linearGradient id="paint1_linear" x1="-1.78652" y1="9.00616" x2="31.762" y2="24.6517" gradientUnits="userSpaceOnUse">
<stop stop-color="white" stop-opacity="0.2"/>
<stop offset="1" stop-color="white" stop-opacity="0"/>
</linearGradient>
<clipPath id="clip0">
<rect width="32" height="32" fill="white"/>
</clipPath>
</defs>
</svg>
