<svg width="173" height="148" viewBox="0 0 173 148" fill="none" xmlns="http://www.w3.org/2000/svg">
<g clip-path="url(#clip0)">
<path fill-rule="evenodd" clip-rule="evenodd" d="M19.7945 98.3822C20.3591 97.9473 21.0526 97.7134 21.7652 97.7178H34.3105C34.3105 97.4098 34.3105 97.1018 34.3105 96.7938C34.3105 93.0627 35.3442 89.0807 36.7914 85.6576C38.6432 81.2494 41.4268 77.2943 44.9512 74.0638C44.895 72.0384 45.6231 70.0696 46.9834 68.5683C46.8369 67.5073 46.7869 66.4352 46.8339 65.3652C43.6178 61.2194 42.1015 56.0038 42.5934 50.7795C43.1345 45.1872 45.8705 40.0349 49.6315 35.9253C49.9977 28.3809 52.0478 21.0143 55.6315 14.3657C56.9429 11.8982 58.5694 9.61161 60.4701 7.56348C61.8821 6.09831 64.4598 3.92475 66.6284 5.11272C68.9378 6.3755 72.1401 12.6762 73.341 15.0521C74.9201 18.1585 76.3761 21.3264 77.797 24.5076H78.1005C81.3072 21.9644 86.1327 19.2497 90.3159 19.7116C91.8819 19.8876 93.4742 20.5916 94.1605 22.1008C94.3771 22.616 94.4806 23.1718 94.4639 23.7305C94.4472 24.2892 94.3107 24.8378 94.0637 25.3391C95.3833 25.5459 96.6282 26.0431 97.3892 27.0463C101.445 23.8212 110.691 16.6669 114.228 16.5657C116.691 16.4997 117.997 19.6061 118.591 21.5552C119.346 24.2415 119.747 27.0149 119.783 29.8051C119.928 37.3675 118.379 44.8665 115.248 51.7518C116.184 55.0832 116.507 58.5568 116.203 62.0036C115.931 65.0428 115.032 67.9926 113.564 70.6671C114.311 72.361 113.744 74.121 112.244 75.3266C111.776 75.7006 111.263 76.0153 110.717 76.2638C111.144 76.8535 111.333 77.5825 111.245 78.3051C111.158 79.0278 110.802 79.691 110.247 80.1621C114.43 85.066 116.776 91.2726 116.885 97.7178H133.499C134.363 97.7201 135.19 98.0643 135.801 98.6753C136.412 99.2862 136.756 100.114 136.758 100.978V144.757C136.759 145.185 136.674 145.61 136.511 146.005C136.347 146.401 136.107 146.76 135.804 147.063L135.513 147.353H135.483C134.92 147.787 134.228 148.021 133.516 148.018H21.774C20.9094 148.016 20.0806 147.673 19.4689 147.062C18.8572 146.451 18.5124 145.622 18.5101 144.757V100.978C18.5098 100.55 18.594 100.126 18.7578 99.7302C18.9215 99.3346 19.1617 98.9752 19.4646 98.6725L19.7549 98.3822H19.7945Z" fill="black"/>
<path fill-rule="evenodd" clip-rule="evenodd" d="M35.2782 96.7982C35.2726 97.4346 35.3049 98.0708 35.375 98.7034H21.7739C21.1715 98.7057 20.5944 98.9461 20.1684 99.3722C19.7424 99.7983 19.5021 100.376 19.4998 100.978V144.757C19.5009 145.36 19.741 145.937 20.1674 146.363C20.5938 146.789 21.1715 147.028 21.7739 147.028H133.503C133.803 147.029 134.099 146.972 134.377 146.859C134.654 146.745 134.906 146.579 135.118 146.368C135.331 146.157 135.5 145.906 135.615 145.63C135.73 145.353 135.79 145.057 135.791 144.757V100.978C135.788 100.376 135.548 99.7983 135.122 99.3722C134.696 98.9461 134.119 98.7057 133.516 98.7034H115.921C115.978 91.1135 113.106 84.5577 108.8 80.0213C110.678 78.9522 110.841 77.2362 108.984 75.8854C109.937 75.6097 110.831 75.1624 111.624 74.5654C112.943 73.5051 113.295 72.0399 112.429 70.6495C114.003 67.9798 114.966 64.9938 115.248 61.9069C115.552 58.4602 115.206 54.9871 114.228 51.6683C117.377 44.8312 118.93 37.3666 118.767 29.8403C118.73 27.1385 118.345 24.4528 117.619 21.85C116.924 19.5709 115.78 17.5205 114.228 17.5645C110.709 17.6657 99.5973 26.536 97.0152 28.5951C96.5534 26.6768 94.2704 26.2104 92.3613 26.2148C94.4991 23.5132 93.3422 21.0581 90.1619 20.7061C87.4566 20.4069 83.1238 21.6564 78.382 25.524L77.0975 25.458C75.5667 22.0128 69.2325 7.68231 66.1005 5.97074C64.7369 5.22276 62.7882 6.52513 61.1343 8.2411C59.2989 10.2282 57.7314 12.447 56.4716 14.841C52.9067 21.4652 50.8941 28.8135 50.586 36.3302C46.6271 40.5585 44.0758 45.6404 43.5479 50.8763C43.1081 55.6634 44.3353 60.5561 47.806 65.0484C47.7257 66.3338 47.7936 67.6241 48.0083 68.894C47.2677 69.6126 46.697 70.4877 46.3378 71.4552C45.9786 72.4227 45.84 73.4583 45.9321 74.4862C38.0978 81.4293 35.309 90.9287 35.2782 96.7982Z" fill="black"/>
<path fill-rule="evenodd" clip-rule="evenodd" d="M84.3732 105.55C84.3732 105.607 84.3732 105.664 84.3952 105.726L84.3732 105.55Z" fill="#F3DDE9"/>
<path fill-rule="evenodd" clip-rule="evenodd" d="M84.3423 105.378C84.3423 105.431 84.3423 105.488 84.3687 105.545C84.3643 105.488 84.3511 105.431 84.3423 105.378Z" fill="#F3DDE9"/>
<path fill-rule="evenodd" clip-rule="evenodd" d="M58.8382 88.6098L58.4379 88.4558L58.8382 88.6098Z" fill="#F3DDE9"/>
<path fill-rule="evenodd" clip-rule="evenodd" d="M60.3337 89.0807L59.9598 88.9795L60.3337 89.0807Z" fill="#F3DDE9"/>
<path fill-rule="evenodd" clip-rule="evenodd" d="M80.401 93.0098L80.3615 92.9746L80.401 93.0098Z" fill="#F3DDE9"/>
<path fill-rule="evenodd" clip-rule="evenodd" d="M80.4406 93.045L80.4055 93.0142L80.4406 93.045Z" fill="#F3DDE9"/>
<path fill-rule="evenodd" clip-rule="evenodd" d="M80.6869 93.2035L80.5417 93.1199L80.6869 93.2035Z" fill="#F3DDE9"/>
<path fill-rule="evenodd" clip-rule="evenodd" d="M80.9377 93.2781L80.8189 93.2385L80.9377 93.2781Z" fill="#F3DDE9"/>
<path fill-rule="evenodd" clip-rule="evenodd" d="M99.6501 87.9366L99.6765 87.9058L99.6501 87.9366Z" fill="#F3DDE9"/>
<path fill-rule="evenodd" clip-rule="evenodd" d="M99.7337 88.5086L99.7073 88.4778L99.7337 88.5086Z" fill="#F3DDE9"/>
<path fill-rule="evenodd" clip-rule="evenodd" d="M99.7733 88.5484L99.7425 88.5176L99.7733 88.5484Z" fill="#F3DDE9"/>
<path fill-rule="evenodd" clip-rule="evenodd" d="M99.8173 88.5923L99.7777 88.5571L99.8173 88.5923Z" fill="#F3DDE9"/>
<path fill-rule="evenodd" clip-rule="evenodd" d="M100.732 89.0938L100.596 89.0366L100.732 89.0938Z" fill="#F3DDE9"/>
<path fill-rule="evenodd" clip-rule="evenodd" d="M101.546 89.3533L101.37 89.3049L101.546 89.3533Z" fill="#F3DDE9"/>
<path fill-rule="evenodd" clip-rule="evenodd" d="M102.215 89.5118L102.026 89.4722L102.215 89.5118Z" fill="#F3DDE9"/>
<path fill-rule="evenodd" clip-rule="evenodd" d="M75.1489 85.0196C78.9451 81.8473 85.2397 82.45 91.0549 84.5796C96.9405 86.74 103.306 90.9023 106.068 95.069C106.168 95.2133 106.321 95.3125 106.494 95.3455C106.667 95.3785 106.846 95.3425 106.992 95.2454C107.139 95.1482 107.241 94.9976 107.278 94.8257C107.315 94.6538 107.283 94.4742 107.19 94.3254C105.933 92.5349 104.417 90.9422 102.69 89.5999C103.168 89.6905 103.654 89.7391 104.141 89.7451C104.73 89.7307 105.312 89.6223 105.866 89.4239C105.835 88.1699 104.577 89.1115 101.436 88.2623C101.124 88.1787 100.75 88.0203 100.42 87.9147C98.8438 86.8416 97.1963 85.8772 95.4889 85.0284L97.376 83.7832C97.7191 85.1032 98.5769 85.9084 99.9273 85.8512C102.36 85.7544 105.122 82.9912 106.407 80.8353C106.765 80.7695 107.119 80.6828 107.467 80.5757C111.712 84.8216 114.637 91.2411 114.58 98.6989H90.2368C91.2793 95.6806 88.9171 93.5994 86.3526 92.3323C86.2359 92.2749 86.1053 92.2519 85.976 92.2659C85.8468 92.2799 85.7241 92.3304 85.6224 92.4115C82.5081 94.5674 81.0433 92.2663 81.0389 92.2619C81.0037 92.2101 80.9624 92.1628 80.9157 92.1211C80.8876 92.0239 80.8742 91.923 80.8761 91.8219C80.9221 91.3019 81.078 90.7976 81.3335 90.3425C81.5891 89.8873 81.9385 89.4917 82.3585 89.1819C82.728 88.9267 82.9216 88.9663 83.0447 88.4955C82.8072 88.1435 82.7588 88.1303 82.3365 88.2271C82.0144 88.2925 81.7126 88.4343 81.4568 88.6407C80.9634 88.9782 80.5602 89.4314 80.2823 89.9607C79.9405 90.6258 79.8173 91.3818 79.9304 92.1211C77.9641 93.0362 76.3894 91.2411 76.385 91.2191C76.2912 91.1153 76.1687 91.0418 76.0331 91.0079C75.9419 90.6652 75.9198 90.3079 75.9681 89.9566C76.0164 89.6053 76.1342 89.2672 76.3146 88.9619L77.124 88.0555C78.1973 87.2196 78.7339 87.5584 79.1474 86.7708C77.7046 85.8072 74.9246 87.7783 74.9246 90.0839C74.9224 90.2899 74.9356 90.4958 74.9642 90.6999C72.3557 89.6571 72.8967 86.9028 75.1489 85.0196Z" fill="#F3DDE9"/>
<path fill-rule="evenodd" clip-rule="evenodd" d="M105.131 93.8283C105.461 94.2275 105.771 94.6431 106.059 95.0734C106.16 95.2177 106.313 95.317 106.485 95.3499C106.658 95.3829 106.837 95.347 106.983 95.2498C107.13 95.1527 107.233 95.002 107.269 94.8301C107.306 94.6582 107.275 94.4786 107.181 94.3299C106.908 93.9207 106.605 93.5115 106.275 93.1067C107.014 93.9295 109.794 96.455 114.193 93.9339C114.458 95.5096 114.586 97.1055 114.575 98.7034H90.2367C91.2353 95.8302 89.1107 93.8019 86.7177 92.5215C87.8526 93.1111 95.6077 97.0578 100.094 96.7938C104.933 96.5078 105.518 94.5982 105.131 93.8283Z" fill="#E1B6CC"/>
<path fill-rule="evenodd" clip-rule="evenodd" d="M88.7499 101.638C88.7524 101.597 88.7524 101.556 88.7499 101.515C88.7524 101.556 88.7524 101.597 88.7499 101.638Z" fill="#F3DDE9"/>
<path fill-rule="evenodd" clip-rule="evenodd" d="M88.6576 101.937L88.6796 101.884V101.836C88.6919 101.803 88.7022 101.769 88.7104 101.735C88.7022 101.769 88.6919 101.803 88.6796 101.836L88.6576 101.937Z" fill="#F3DDE9"/>
<path fill-rule="evenodd" clip-rule="evenodd" d="M88.6356 101.981C88.6356 101.981 88.6356 101.95 88.6576 101.937C88.6796 101.924 88.6444 101.968 88.6356 101.981Z" fill="#F3DDE9"/>
<path fill-rule="evenodd" clip-rule="evenodd" d="M88.5432 101.95L88.6356 101.981L88.5432 101.95Z" fill="#F3DDE9"/>
<path fill-rule="evenodd" clip-rule="evenodd" d="M88.4156 101.885L88.4508 101.907L88.4156 101.885Z" fill="#F3DDE9"/>
<path fill-rule="evenodd" clip-rule="evenodd" d="M88.3364 101.827L88.4068 101.88L88.3364 101.827Z" fill="#F3DDE9"/>
<path fill-rule="evenodd" clip-rule="evenodd" d="M88.3013 101.796L88.3321 101.823L88.3013 101.796Z" fill="#F3DDE9"/>
<path fill-rule="evenodd" clip-rule="evenodd" d="M88.2661 101.761L88.2969 101.792L88.2661 101.761Z" fill="#F3DDE9"/>
<path fill-rule="evenodd" clip-rule="evenodd" d="M88.2352 101.722L88.2616 101.757L88.2352 101.722Z" fill="#F3DDE9"/>
<path fill-rule="evenodd" clip-rule="evenodd" d="M88.1737 101.638L88.2309 101.713L88.1737 101.638Z" fill="#F3DDE9"/>
<path fill-rule="evenodd" clip-rule="evenodd" d="M80.7617 96.0457C82.4591 96.5213 84.1016 97.1746 85.662 97.9948C86.5944 98.5616 87.304 99.4314 87.6722 100.459C87.6549 100.543 87.6549 100.63 87.6722 100.714C88.4816 104.445 84.7426 105.211 84.4743 105.259C84.4202 105.268 84.3671 105.283 84.3159 105.303V105.365C83.5813 101.911 77.7749 100.371 76.9744 101.524C77.3439 102.078 78.316 102.065 79.3497 102.346C80.1312 102.562 80.8735 102.901 81.5491 103.35C83.1811 104.427 83.3526 105.382 83.6957 106.966C82.1825 112.941 75.382 109.316 71.9949 107.521C71.6166 107.318 71.2779 107.081 70.926 107.151C48.0303 113.012 41.4541 100.551 41.0143 99.6712C40.97 99.5529 40.8934 99.4494 40.7932 99.3725C40.693 99.2957 40.5731 99.2486 40.4474 99.2367C40.3217 99.2248 40.1952 99.2485 40.0823 99.3051C39.9694 99.3617 39.8747 99.4489 39.809 99.5568C39.0876 100.736 38.4894 101.29 38.0187 101.348C37.6976 101.383 37.3897 101.048 37.1389 100.428C36.7379 99.257 36.5589 98.0215 36.6111 96.7848C36.6419 91.3113 39.1976 82.5115 46.3456 75.9028C47.5421 80.5667 52.6842 85.0107 54.5185 82.7711C54.9056 82.2959 55.0904 81.5259 54.9584 80.3908C59.8543 83.5367 66.1533 85.8686 72.0653 87.0874C71.8806 87.6682 71.8206 88.2814 71.8894 88.887C69.1401 88.5966 65.4011 88.3722 61.7458 88.3634H61.7106C59.1989 87.8222 56.6388 86.2206 55.7502 86.2206C55.7502 87.1006 57.0039 87.875 58.3895 88.4206H58.3631C56.0753 88.4647 53.7992 88.7598 51.5758 89.3006C51.4008 89.3496 51.2524 89.4661 51.1633 89.6246C51.0742 89.783 51.0517 89.9703 51.1007 90.1454C51.1497 90.3204 51.2662 90.4688 51.4246 90.5579C51.583 90.647 51.7703 90.6696 51.9453 90.6206C53.7532 90.097 56.9599 89.789 60.7428 89.7406C64.6177 89.6994 68.4914 89.8948 72.3424 90.3258C72.4309 90.4808 72.5325 90.628 72.646 90.7658C73.3933 91.5917 74.3949 92.1445 75.492 92.3365C76.0418 92.8733 77.9069 94.4353 80.2251 93.4937C80.9993 94.2989 82.9523 95.6937 86.0271 93.7445C88.0681 94.8313 89.876 96.3845 88.6663 98.8L88.2265 99.5348C87.8 98.6021 87.1411 97.7945 86.313 97.1896C84.6372 96.1217 82.6823 95.5751 80.6957 95.6189L80.7617 96.0457Z" fill="#F3DDE9"/>
<path fill-rule="evenodd" clip-rule="evenodd" d="M87.7822 101.44C87.9933 104.546 84.7338 105.215 84.4831 105.259C84.429 105.269 84.3759 105.283 84.3247 105.303V105.365C84.0621 104.322 83.4388 103.405 82.5652 102.778C84.3247 103.218 87.1048 103.578 87.791 101.458L87.7822 101.44ZM83.7089 106.966C80.2691 110.222 70.9524 103.156 70.1166 102.566C69.2809 101.977 68.8322 102.351 68.8322 102.351C68.8322 102.351 54.7121 108.911 45.5846 100.855C36.5099 92.8382 40.3104 83.704 40.3632 83.5984C37.702 88.4031 36.6375 93.2782 36.6199 96.7981C36.5677 98.0348 36.7467 99.2703 37.1477 100.441C37.4028 101.062 37.7108 101.396 38.0275 101.361C38.4893 101.304 39.0964 100.749 39.8178 99.5701C39.8835 99.4622 39.9782 99.375 40.0911 99.3184C40.2039 99.2618 40.3305 99.2381 40.4562 99.25C40.5819 99.2619 40.7018 99.309 40.802 99.3858C40.9022 99.4627 40.9788 99.5662 41.0231 99.6845C41.4629 100.564 48.0611 113.007 70.9348 107.164C71.2867 107.076 71.6254 107.332 72.0037 107.534C75.3908 109.329 82.1913 112.955 83.7045 106.98L83.7089 106.966ZM89.1018 96.9081C89.1838 97.5515 89.0607 98.2044 88.7499 98.7737L88.31 99.5085C88.0037 98.8597 87.5936 98.2653 87.096 97.7485C87.4762 97.8359 87.8742 97.8018 88.234 97.651C88.5938 97.5003 88.8974 97.2404 89.1018 96.9081Z" fill="#E1B6CC"/>
<path fill-rule="evenodd" clip-rule="evenodd" d="M59.7091 108.713C45.7913 108.748 41.3793 100.397 41.0274 99.6888C40.9832 99.5705 40.9066 99.467 40.8064 99.3902C40.7062 99.3134 40.5863 99.2663 40.4606 99.2544C40.3349 99.2424 40.2083 99.2661 40.0954 99.3227C39.9825 99.3793 39.8878 99.4665 39.8222 99.5744C39.1008 100.754 38.5025 101.308 38.0319 101.365C37.7108 101.4 37.4028 101.066 37.1521 100.446C36.7511 99.2747 36.5721 98.0391 36.6243 96.8025C36.6243 92.3058 38.3838 85.5739 42.9497 79.6428C43.9922 81.0904 44.6301 83.2244 44.0978 86.3659C44.0978 86.3659 49.1608 87.5055 47.6168 93.2122C47.5904 93.2166 60.0346 93.3398 59.7091 108.713Z" fill="white"/>
<path fill-rule="evenodd" clip-rule="evenodd" d="M59.7091 108.713C45.7913 108.748 41.3793 100.397 41.0274 99.6889C40.9832 99.5706 40.9066 99.4671 40.8064 99.3902C40.7062 99.3134 40.5863 99.2663 40.4606 99.2544C40.3349 99.2425 40.2083 99.2661 40.0954 99.3228C39.9825 99.3794 39.8878 99.4666 39.8222 99.5745C39.1008 100.754 38.5025 101.308 38.0319 101.365C37.7108 101.4 37.4028 101.066 37.1521 100.446C36.7511 99.2747 36.5721 98.0392 36.6243 96.8025C36.6243 93.2826 37.7064 88.3855 40.3632 83.6028C40.2445 83.8976 36.6155 92.9306 45.589 100.859C49.7854 104.564 55.0376 105.176 59.4848 104.762C59.6693 106.071 59.7443 107.392 59.7091 108.713Z" fill="#F3DDE9"/>
<path fill-rule="evenodd" clip-rule="evenodd" d="M52.3456 77.3284C52.3456 78.1512 53.023 79.0884 53.85 79.7088C54.1183 81.0288 54.0391 81.7812 53.74 82.1507C53.3001 82.6963 52.1608 82.1199 51.5802 81.7372C49.3403 80.1649 47.7709 77.8101 47.1814 75.1373C47.2644 75.0065 47.3001 74.8512 47.2826 74.6973C47.1753 73.9582 47.2174 73.2052 47.4063 72.4827C47.5952 71.7602 47.927 71.0829 48.3823 70.491C49.5787 74.0637 52.3764 74.8337 53.9819 71.8505C54.5362 73.0913 55.3543 74.3277 56.5464 74.6313C56.966 74.726 57.4035 74.704 57.8115 74.5674C58.2194 74.4309 58.5821 74.1852 58.8602 73.8569C66.8968 78.028 78.4084 80.8616 87.2192 81.24C90.9253 81.4455 94.6421 81.139 98.2645 80.3292C100.468 80.9791 102.771 81.2206 105.061 81.042C104.149 82.3679 102.96 83.4802 101.577 84.3023C100.697 84.7863 99.4478 85.2219 98.7572 84.4475C97.917 83.4971 98.5637 82.2783 97.6443 82.3355C97.5254 82.3528 97.4117 82.396 97.3113 82.4622C97.2109 82.5283 97.1264 82.6158 97.0637 82.7183C96.659 83.1891 94.9742 84.1835 94.3408 84.5179C88.0769 81.6448 80.1811 79.9992 75.0961 83.3783C73.9982 84.0762 73.0912 85.0363 72.4568 86.1723C66.646 84.9975 60.4393 82.7315 55.5831 79.6296C55.0574 79.3106 54.5664 78.9375 54.1183 78.5164C53.7956 78.225 53.5011 77.9038 53.2385 77.5572C52.7327 76.7784 52.3456 76.8972 52.3456 77.3284Z" fill="#F2C94C"/>
<path fill-rule="evenodd" clip-rule="evenodd" d="M108.316 21.885C110.63 20.3098 113.674 18.5895 114.474 18.9591C115.116 19.2583 115.794 20.4242 116.33 22.2414C117.022 24.7297 117.389 27.2971 117.421 29.8797C117.581 37.2707 116.039 44.5995 112.913 51.2984C112.83 51.4542 112.813 51.636 112.864 51.8044C114.703 58.0567 114.514 64.7974 111.105 70.3105C111.027 70.4317 110.991 70.5747 111.001 70.7182C111.012 70.8616 111.068 70.9979 111.162 71.1069C111.883 71.9869 111.681 72.8228 110.827 73.518C110.119 74.09 108.932 74.6092 107.133 74.9876C106.989 75.011 106.858 75.0801 106.757 75.1845C106.656 75.2889 106.592 75.4231 106.574 75.567C106.555 75.711 106.584 75.857 106.655 75.9833C106.727 76.1096 106.837 76.2095 106.97 76.268C108.179 76.8048 109.389 77.588 108.83 78.3183C108.533 78.6511 108.158 78.9064 107.74 79.0619C105.826 79.8847 102.342 80.1003 98.5373 78.9739C98.4151 78.9388 98.2855 78.9388 98.1634 78.9739C94.6166 79.7813 90.9742 80.0879 87.3423 79.8847C80.7442 79.5987 72.646 77.8783 66.0346 75.4848C63.6533 74.6316 61.3353 73.6112 59.0977 72.4312C58.9543 72.3472 58.7848 72.3195 58.6221 72.3537C58.4595 72.3879 58.3154 72.4814 58.218 72.616C57.9188 73.056 57.4658 73.4564 56.9511 73.3288C56.0186 73.0912 55.1476 71.2433 54.7517 69.9541C54.6725 69.6681 54.5802 69.4085 54.2327 69.3161C53.7928 69.1973 53.4937 69.4613 53.3749 69.9013C52.8998 71.6613 51.7869 73.3376 50.4805 71.6129C49.9546 70.8509 49.5976 69.9853 49.4336 69.0741C49.429 69.0279 49.4202 68.9823 49.4072 68.9377C49.1574 67.6082 49.0864 66.2513 49.196 64.903C49.2048 64.7214 49.1433 64.5434 49.0245 64.4058C45.6858 60.1731 44.4805 55.5356 44.916 51.0213C45.3999 46.0185 47.8984 41.1434 51.7429 37.0911C51.8036 37.0289 51.8511 36.9552 51.8829 36.8744C51.9146 36.7935 51.9298 36.7072 51.9277 36.6203C52.1993 29.2331 54.1648 22.0072 57.6725 15.5007C58.8768 13.2162 60.3732 11.0982 62.1241 9.20005C63.3777 7.88007 64.8645 6.83729 65.4804 7.17608C68.19 8.65886 74.8058 23.5878 76.0375 26.4125C76.0915 26.5382 76.1831 26.6441 76.2996 26.7157C76.4161 26.7874 76.5519 26.8213 76.6885 26.8129L78.5492 26.9141C78.6441 26.9208 78.7394 26.9074 78.8288 26.8748C78.9183 26.8422 78.9998 26.7912 79.0682 26.7249C83.555 23.0114 87.5711 21.797 90.0124 22.0698C92.8892 22.3866 92.5989 24.4414 90.2148 26.5093C90.1076 26.6037 90.0333 26.7296 90.0024 26.869C89.9716 27.0084 89.9858 27.154 90.0431 27.2847C90.1004 27.4155 90.1977 27.5246 90.3211 27.5964C90.4445 27.6682 90.5875 27.6989 90.7294 27.6841C97.3056 26.9669 96.5842 31.0016 93.096 31.8376C92.2426 32.04 92.0798 31.8376 91.376 32.2776C91.6092 32.7176 91.7103 32.8276 92.7485 32.8452C97.178 32.9068 97.7543 29.0393 108.316 21.885Z" fill="#F3DDE9"/>
<path fill-rule="evenodd" clip-rule="evenodd" d="M113.999 59.2976C114.093 63.1688 113.076 66.986 111.069 70.2974C110.992 70.4186 110.956 70.5616 110.966 70.7051C110.976 70.8485 111.033 70.9848 111.127 71.0938C111.848 71.9738 111.646 72.8098 110.792 73.5049C110.084 74.0769 108.896 74.5961 107.097 74.9745C106.954 74.9979 106.822 75.067 106.722 75.1714C106.621 75.2758 106.557 75.41 106.538 75.554C106.52 75.6979 106.549 75.8439 106.62 75.9702C106.691 76.0965 106.802 76.1964 106.935 76.2549C108.144 76.7917 109.354 77.5749 108.795 78.3052C108.497 78.6381 108.123 78.8933 107.704 79.0488C105.791 79.8716 102.307 80.0872 98.502 78.9608C98.3799 78.9258 98.2503 78.9258 98.1281 78.9608C94.5813 79.7682 90.9389 80.0748 87.3071 79.8716C80.7089 79.5856 72.6108 77.8653 65.9994 75.4717C63.6181 74.6185 61.3 73.5981 59.0625 72.4182C58.9191 72.3341 58.7496 72.3064 58.5869 72.3406C58.4243 72.3748 58.2802 72.4683 58.1827 72.603C57.8836 73.0429 57.4305 73.4433 56.9159 73.3157C55.9833 73.0781 55.1124 71.2302 54.7165 69.941C54.6373 69.655 54.5449 69.3954 54.1974 69.303C53.7576 69.1842 53.4584 69.4482 53.3397 69.8882C52.8646 71.6482 51.7517 73.3245 50.4453 71.5998C49.9194 70.8378 49.5624 69.9722 49.3984 69.061C49.3938 69.0148 49.385 68.9692 49.372 68.9246C49.1222 67.5951 49.0512 66.2382 49.1608 64.8899C49.1695 64.7083 49.1081 64.5303 48.9893 64.3927C45.6506 60.16 44.4453 55.5225 44.8808 51.0082C45.0818 49.0265 45.5708 47.0847 46.3324 45.2443C51.3206 41.4252 58.5038 39.3352 68.212 43.9991C68.212 43.9991 73.1166 45.9263 76.8952 53.1289L83.0975 55.0561C83.0975 55.0561 106.983 46.6391 113.999 59.2976Z" fill="white"/>
<path fill-rule="evenodd" clip-rule="evenodd" d="M71.0184 108.519C50.3441 113.711 42.3735 104.322 40.3501 101.185C39.5979 102.14 38.8677 102.619 38.1859 102.703C37.1917 102.822 36.4263 102.175 35.9073 100.943C35.7872 100.657 35.6887 100.363 35.6126 100.063H21.774C21.6526 100.06 21.5319 100.081 21.4187 100.125C21.3055 100.168 21.202 100.234 21.1142 100.318C20.9408 100.492 20.8429 100.728 20.8414 100.974V144.757C20.8426 145.003 20.9409 145.238 21.1148 145.411C21.2888 145.584 21.5242 145.681 21.7696 145.681H133.499C133.621 145.681 133.741 145.657 133.854 145.611C133.966 145.564 134.069 145.495 134.154 145.408C134.325 145.235 134.422 145.001 134.423 144.757V100.978C134.421 100.733 134.324 100.499 134.151 100.326C133.978 100.153 133.743 100.055 133.499 100.054H89.5681L89.0579 100.758C89.7441 104.784 86.4582 106.117 85.1825 106.478C84.4611 110.935 81.7779 111.925 78.7955 111.551C75.3688 111.115 71.124 108.533 71.0184 108.519Z" fill="#F2C94C"/>
<path fill-rule="evenodd" clip-rule="evenodd" d="M101.198 34.0992C103.574 36.396 108.676 41.6363 111.949 47.1054C113.786 42.0479 114.85 36.742 115.103 31.3669C115.222 27.7722 114.8 25.0926 113.832 24.8022C111.892 24.2258 102.074 33.2897 101.198 34.0992Z" fill="#DF9FC2"/>
<path fill-rule="evenodd" clip-rule="evenodd" d="M70.1607 26.6414C69.8307 25.7306 65.1108 12.8389 63.1226 12.5617C62.1285 12.4561 60.5801 14.5548 59.0361 17.8416C56.7619 22.8629 55.2781 28.206 54.6373 33.6813C57.3602 31.7057 63.6988 27.583 70.1607 26.6414Z" fill="#DF9FC2"/>
<path fill-rule="evenodd" clip-rule="evenodd" d="M65.5024 10.9997C68.4935 15.8396 72.3469 25.0486 73.1299 26.4786C73.8161 27.7238 74.9905 28.2606 76.3674 26.7162C76.2174 26.647 76.0983 26.5248 76.0331 26.373C74.7838 23.5483 68.168 8.61934 65.476 7.13657C64.9613 6.85498 63.8352 7.55016 62.7531 8.54454C63.6153 8.79974 64.5742 9.51253 65.5024 10.9997Z" fill="white"/>
<path fill-rule="evenodd" clip-rule="evenodd" d="M90.008 22.0436C87.5667 21.7708 83.5506 22.9852 79.0638 26.6987C79.0638 26.6987 86.8057 22.1844 91.1781 25.5152C92.6077 23.8124 92.4318 22.312 90.008 22.0436Z" fill="white"/>
<path fill-rule="evenodd" clip-rule="evenodd" d="M108.316 21.8851C104.834 24.2431 101.558 26.8925 98.524 29.8049C99.1927 30.1261 100.284 30.2449 101.867 29.3957C104.898 27.7546 107.001 24.4018 112.314 21.6915C113.384 21.09 114.612 20.8305 115.833 20.9479C115.393 19.8743 114.91 19.1879 114.434 18.9591C113.673 18.5895 110.63 20.3099 108.316 21.8851Z" fill="white"/>
<path fill-rule="evenodd" clip-rule="evenodd" d="M113.832 24.8022C111.892 24.2258 102.074 33.2897 101.198 34.0993C102.113 34.9792 103.429 36.2992 104.885 37.892C104.643 36.858 104.445 35.4808 104.885 34.7284C105.632 33.4085 110.871 28.309 112.407 27.2046C113.172 26.6502 114.012 26.2542 114.786 26.4258C114.571 25.5194 114.254 24.9298 113.832 24.8022Z" fill="#C87B9A"/>
<path fill-rule="evenodd" clip-rule="evenodd" d="M70.1606 26.6415C69.8307 25.7307 65.1108 12.839 63.1226 12.5618C62.7399 12.5222 62.278 12.8038 61.7678 13.3538C62.1724 13.2262 62.7267 13.389 63.3425 14.5065C64.429 16.4645 65.8454 24.9651 66.2545 27.5567C67.5293 27.1451 68.8357 26.839 70.1606 26.6415Z" fill="#C87B9A"/>
<path fill-rule="evenodd" clip-rule="evenodd" d="M60.8088 89.7275C58.9526 89.7539 57.237 89.8375 55.759 89.9783C57.0479 93.0583 59.564 96.763 64.2751 97.4978C72.5492 98.7782 74.19 94.5718 74.19 94.5718C74.19 94.5718 76.6093 96.169 79.0022 93.7579C77.2999 93.8415 76.0023 92.7459 75.558 92.3103C74.4609 92.1183 73.4593 91.5655 72.712 90.7395C72.5985 90.6017 72.4969 90.4545 72.4084 90.2995C68.5571 89.873 64.6834 89.6819 60.8088 89.7275Z" fill="white"/>
<path fill-rule="evenodd" clip-rule="evenodd" d="M81.3028 82.8372C84.6547 89.7275 95.1106 93.9954 100.108 91.8967C100.108 91.8967 101.427 94.0086 104.313 92.8998C101.097 89.5119 95.9112 86.3704 91.0549 84.584C87.7778 83.3828 84.3512 82.6656 81.3028 82.8372Z" fill="white"/>
<path fill-rule="evenodd" clip-rule="evenodd" d="M108.316 21.8852C110.629 20.3101 113.673 18.5897 114.474 18.9593C115.116 19.2585 115.794 20.4245 116.33 22.2416C117.022 24.73 117.389 27.2974 117.421 29.8799C117.581 37.271 116.039 44.5998 112.912 51.2987C112.83 51.4544 112.813 51.6362 112.864 51.8047C114.703 58.057 114.514 64.7976 111.105 70.3107C111.027 70.432 110.991 70.5749 111.001 70.7184C111.012 70.8619 111.068 70.9982 111.162 71.1071C111.883 71.9871 111.681 72.8231 110.827 73.5183C110.119 74.0903 108.932 74.6094 107.132 74.9878C106.989 75.0113 106.858 75.0803 106.757 75.1848C106.656 75.2892 106.592 75.4233 106.573 75.5673C106.555 75.7112 106.584 75.8572 106.655 75.9835C106.727 76.1098 106.837 76.2097 106.97 76.2682C108.179 76.805 109.389 77.5882 108.83 78.3186C108.533 78.6514 108.158 78.9066 107.739 79.0622C105.826 79.8849 102.342 80.1005 98.5372 78.9742C98.415 78.9391 98.2855 78.9391 98.1633 78.9742C94.6165 79.7816 90.9741 80.0881 87.3423 79.8849C80.7441 79.599 72.6459 77.8786 66.0345 75.485C63.6533 74.6318 61.3352 73.6114 59.0977 72.4315C58.9543 72.3474 58.7847 72.3198 58.6221 72.3539C58.4594 72.3881 58.3154 72.4816 58.2179 72.6163C57.9188 73.0563 57.4657 73.4567 56.951 73.3291C56.0185 73.0915 55.1475 71.2435 54.7517 69.9543C54.6725 69.6683 54.5801 69.4087 54.2326 69.3163C53.7927 69.1975 53.4936 69.4615 53.3748 69.9015C52.8998 71.6615 51.7869 73.3379 50.4804 71.6131C49.9545 70.8512 49.5976 69.9856 49.4335 69.0744C49.429 69.0282 49.4201 68.9825 49.4071 68.938C49.1574 67.6085 49.0864 66.2515 49.196 64.9032C49.2047 64.7216 49.1433 64.5436 49.0244 64.406C45.6858 60.1733 44.4805 55.5358 44.916 51.0215C45.3998 46.0188 47.8983 41.1437 51.7429 37.0914C51.8035 37.0292 51.8511 36.9555 51.8828 36.8746C51.9145 36.7938 51.9298 36.7074 51.9276 36.6206C52.1993 29.2334 54.1648 22.0075 57.6725 15.501C58.8767 13.2164 60.3731 11.0984 62.124 9.20028C63.3777 7.88031 64.8645 6.83753 65.4803 7.17632C68.19 8.65909 74.8057 23.588 76.0374 26.4128C76.0915 26.5384 76.1831 26.6443 76.2996 26.716C76.4161 26.7877 76.5519 26.8216 76.6884 26.8132L78.5491 26.9143C78.6441 26.9211 78.7394 26.9077 78.8288 26.8751C78.9182 26.8425 78.9998 26.7914 79.0682 26.7252C83.5549 23.0116 87.571 21.7972 90.0124 22.07C92.8892 22.3868 92.5988 24.4416 90.2147 26.5096C90.1076 26.6039 90.0332 26.7299 90.0024 26.8692C89.9715 27.0086 89.9858 27.1542 90.043 27.285C90.1003 27.4157 90.1977 27.5249 90.321 27.5967C90.4444 27.6685 90.5874 27.6992 90.7294 27.6843C97.3055 26.9671 96.5841 31.0019 93.0959 31.8379C92.2425 32.0403 92.0798 31.8379 91.376 32.2778C91.6091 32.7178 91.7103 32.8278 92.7484 32.8454C97.1824 32.9202 97.7586 29.0703 108.32 21.8984L108.316 21.8852ZM52.3455 77.3286C52.3455 76.8886 52.7238 76.7786 53.2737 77.5398C53.5362 77.8864 53.8308 78.2075 54.1534 78.499C54.6016 78.9201 55.0925 79.2932 55.6182 79.6122C60.4569 82.7141 66.6812 84.98 72.492 86.1548C73.1263 85.0189 74.0334 84.0587 75.1312 83.3609C80.2162 79.9818 88.1121 81.6273 94.376 84.5005C95.0094 84.1661 96.6941 83.1805 97.0988 82.7009C97.1615 82.5984 97.2461 82.5109 97.3464 82.4447C97.4468 82.3786 97.5605 82.3353 97.6794 82.3181C98.5988 82.2609 97.9522 83.4797 98.7923 84.4301C99.4829 85.2044 100.741 84.7689 101.612 84.2849C102.995 83.4628 104.184 82.3504 105.096 81.0245C102.806 81.2032 100.503 80.9616 98.2997 80.3117C94.6772 81.1216 90.9604 81.428 87.2543 81.2225C78.4567 80.8441 66.9319 78.0106 58.8953 73.8395C58.6172 74.1677 58.2545 74.4135 57.8466 74.55C57.4387 74.6865 57.0011 74.7086 56.5816 74.6139C55.3895 74.3103 54.5713 73.0739 54.0171 71.8331C52.4115 74.8162 49.6183 74.0331 48.4174 70.4735C47.9622 71.0655 47.6303 71.7427 47.4414 72.4652C47.2525 73.1877 47.2105 73.9408 47.3177 74.6798C47.3353 74.8338 47.2995 74.9891 47.2165 75.1198C47.806 77.7926 49.3755 80.1475 51.6153 81.7197C52.196 82.1025 53.3265 82.6789 53.7751 82.1333C54.0742 81.7637 54.1534 80.9893 53.8851 79.6914C53.0581 79.0534 52.3807 78.1338 52.3807 77.311L52.3455 77.3286ZM71.1283 26.3468C71.1283 26.3072 65.9642 12.0514 63.3073 11.5894C61.7721 11.3518 59.8499 13.7146 58.1079 17.4193C55.7373 22.6428 54.2082 28.2086 53.5772 33.9102C53.5741 34.0374 53.6189 34.161 53.7028 34.2566C53.7867 34.3521 53.9035 34.4126 54.0299 34.4259C54.1564 34.4392 54.2832 34.4044 54.3851 34.3284C54.4871 34.2524 54.5567 34.1408 54.5801 34.0158C55.2018 28.4277 56.6996 22.9724 59.0185 17.8505C60.5625 14.5726 62.0976 12.4738 63.105 12.5706C65.1856 12.839 70.1782 26.6768 70.1826 26.6856C70.2367 26.7996 70.3315 26.8894 70.4483 26.9371C70.5652 26.9849 70.6957 26.9872 70.8141 26.9437C70.9326 26.9001 71.0306 26.8138 71.0887 26.7018C71.1468 26.5897 71.161 26.4599 71.1283 26.338V26.3468ZM114.056 23.8256C111.351 23.2404 100.486 33.3866 100.451 33.4174C100.356 33.5099 100.302 33.6356 100.299 33.7678C100.296 33.9 100.344 34.0281 100.435 34.1247C100.525 34.2213 100.649 34.2787 100.782 34.2847C100.914 34.2907 101.043 34.2447 101.141 34.1566C101.172 34.1258 111.804 24.1996 113.832 24.8024C114.8 25.0928 115.222 27.7723 115.103 31.3671C114.837 36.9844 113.687 42.5246 111.694 47.7832C111.659 47.9049 111.671 48.0355 111.727 48.149C111.784 48.2625 111.881 48.3506 111.999 48.396C112.117 48.4414 112.248 48.4406 112.366 48.394C112.484 48.3473 112.58 48.2581 112.635 48.1439C114.672 42.7802 115.851 37.1288 116.128 31.3979C116.26 27.3455 115.613 24.402 114.245 23.874L114.074 23.8256H114.056ZM80.7617 96.0458V95.6059C82.7482 95.562 84.7031 96.1087 86.3789 97.1766C87.207 97.7815 87.8659 98.5891 88.2924 99.5218L88.7323 98.787C89.9244 96.389 88.1165 94.8271 86.093 93.7315C83.0139 95.6895 81.0652 94.2859 80.291 93.4807C77.9729 94.4223 76.1078 92.8603 75.5579 92.3235C74.4609 92.1315 73.4593 91.5787 72.7119 90.7527C72.5984 90.615 72.4969 90.4678 72.4084 90.3128C68.5574 89.8818 64.6836 89.6864 60.8088 89.7276C57.0082 89.776 53.8015 90.084 52.0112 90.6075C51.8362 90.6566 51.6489 90.634 51.4905 90.5449C51.3322 90.4558 51.2156 90.3074 51.1666 90.1324C51.1176 89.9573 51.1402 89.77 51.2293 89.6115C51.3184 89.4531 51.4667 89.3366 51.6417 89.2876C53.8652 88.7468 56.1412 88.4517 58.429 88.4076H58.4554C57.0478 87.84 55.8162 87.0876 55.8162 86.2076C56.6959 86.2076 59.2648 87.8092 61.7765 88.3504H61.8117C65.4671 88.3504 69.2061 88.5836 71.9553 88.874C71.8866 88.2684 71.9465 87.6552 72.1313 87.0744C66.2193 85.8556 59.9202 83.5237 55.0244 80.3777C55.1387 81.5129 54.954 82.2829 54.5845 82.7581C52.7502 84.9977 47.608 80.5581 46.4116 75.8898C39.2635 82.4897 36.7078 91.2895 36.677 96.7718C36.6249 98.0085 36.8039 99.244 37.2049 100.415C37.46 101.035 37.7679 101.37 38.0846 101.335C38.5465 101.277 39.1536 100.723 39.875 99.5438C39.9406 99.4359 40.0353 99.3487 40.1482 99.292C40.2611 99.2354 40.3877 99.2118 40.5134 99.2237C40.6391 99.2356 40.7589 99.2827 40.8592 99.3595C40.9594 99.4364 41.036 99.5399 41.0802 99.6582C41.5201 100.538 48.1183 112.981 70.992 107.138C71.3439 107.05 71.6826 107.305 72.0609 107.508C75.448 109.303 82.2485 112.928 83.7617 106.953C83.4186 105.369 83.247 104.414 81.6151 103.337C80.9395 102.888 80.1972 102.549 79.4157 102.333C78.382 102.052 77.4098 102.065 77.0403 101.511C77.8409 100.358 83.6385 101.898 84.3819 105.352V105.29C84.4331 105.27 84.4861 105.255 84.5403 105.246C84.8086 105.198 88.5476 104.432 87.7382 100.701C87.7209 100.617 87.7209 100.53 87.7382 100.446C87.37 99.4184 86.6603 98.5486 85.7279 97.9818C84.1676 97.1616 82.525 96.5083 80.8277 96.0326L80.7617 96.0458ZM88.1737 101.638L88.2308 101.713L88.1737 101.638ZM88.2352 101.713L88.2616 101.748L88.2352 101.713ZM88.266 101.753L88.2968 101.783L88.266 101.753ZM88.3012 101.788L88.332 101.814L88.3012 101.788ZM88.3364 101.819L88.4068 101.871L88.3364 101.819ZM88.4156 101.876L88.4508 101.898L88.4156 101.876ZM88.4508 101.898H88.4904H88.4508ZM88.5432 101.942L88.6355 101.973L88.5432 101.942ZM88.6355 101.973C88.6355 101.973 88.6355 101.942 88.6575 101.929C88.6795 101.915 88.6575 101.959 88.6355 101.973ZM88.6575 101.929L88.7059 101.814C88.7182 101.781 88.7285 101.747 88.7367 101.713C88.7285 101.747 88.7182 101.781 88.7059 101.814V101.863L88.6839 101.915L88.6575 101.929ZM88.7499 101.643C88.7523 101.602 88.7523 101.56 88.7499 101.519C88.7523 101.56 88.7523 101.602 88.7499 101.643ZM88.7807 101.304C88.7807 101.264 88.7807 101.22 88.7807 101.176C88.7807 101.22 88.7807 101.264 88.7807 101.304ZM75.1444 85.0241C78.9406 81.8517 85.2353 82.4545 91.0505 84.5841C96.9361 86.7444 103.301 90.9067 106.064 95.0735C106.164 95.2178 106.317 95.317 106.49 95.35C106.662 95.3829 106.841 95.347 106.988 95.2498C107.134 95.1527 107.237 95.0021 107.274 94.8301C107.311 94.6582 107.279 94.4787 107.185 94.3299C105.929 92.5394 104.412 90.9467 102.685 89.6044C103.164 89.695 103.65 89.7436 104.137 89.7496C104.725 89.7352 105.307 89.6267 105.861 89.4284C105.83 88.1744 104.572 89.116 101.432 88.2668C101.119 88.1832 100.745 88.0248 100.415 87.9192C98.8393 86.846 97.1918 85.8817 95.4844 85.0329L97.3715 83.7877C97.7146 85.1077 98.5724 85.9128 99.9228 85.8556C102.355 85.7588 105.118 82.9957 106.402 80.8397C106.76 80.7739 107.114 80.6872 107.462 80.5801C111.707 84.8261 114.632 91.2455 114.575 98.7034H90.2367C91.2792 95.6851 88.917 93.6039 86.3526 92.3367C86.2358 92.2794 86.1052 92.2563 85.976 92.2704C85.8467 92.2844 85.7241 92.3349 85.6224 92.4159C82.508 94.5719 81.0432 92.2707 81.0388 92.2663C81.0037 92.2145 80.9623 92.1672 80.9157 92.1255C80.8875 92.0283 80.8742 91.9275 80.8761 91.8263C80.922 91.3063 81.0779 90.8021 81.3335 90.3469C81.589 89.8918 81.9384 89.4962 82.3585 89.1864C82.728 88.9312 82.9215 88.9708 83.0447 88.5C82.8071 88.148 82.7587 88.1348 82.3365 88.2316C82.0143 88.2969 81.7126 88.4388 81.4567 88.6452C80.9633 88.9826 80.5601 89.4358 80.2822 89.9652C79.9404 90.6302 79.8173 91.3863 79.9303 92.1255C77.9641 93.0407 76.3893 91.2455 76.3849 91.2235C76.2912 91.1197 76.1687 91.0462 76.033 91.0123C75.9418 90.6697 75.9197 90.3123 75.9681 89.961C76.0164 89.6098 76.1342 89.2716 76.3145 88.9664L77.1239 88.06C78.1972 87.224 78.7338 87.5628 79.1473 86.7752C77.7045 85.8116 74.9245 87.7828 74.9245 90.0884C74.9223 90.2944 74.9356 90.5003 74.9641 90.7043C72.3248 89.6308 72.8791 86.8764 75.1312 84.9845L75.1444 85.0241ZM102.21 89.5164L102.021 89.4768L102.21 89.5164ZM101.542 89.358L101.366 89.3096L101.542 89.358ZM100.723 89.0984L100.587 89.0412L100.723 89.0984ZM99.8129 88.5968L99.7733 88.5616L99.8129 88.5968ZM99.7689 88.5528L99.7381 88.522L99.7689 88.5528ZM99.7293 88.5132L99.7029 88.4824L99.7293 88.5132ZM99.6457 88.3944V88.3548V88.3944ZM99.6061 88.3064V88.2668V88.3064ZM99.6061 88.258C99.6061 88.258 99.6061 88.258 99.6061 88.2272C99.6061 88.1964 99.6061 88.2492 99.6061 88.258ZM99.6677 87.9412L99.6941 87.9104L99.6677 87.9412ZM99.7469 87.8708H99.7909H99.7469ZM100.024 87.8312H100.077H100.024ZM81.008 93.3135H80.942H81.008ZM80.942 93.3135L80.8233 93.2739L80.942 93.3135ZM80.7045 93.2255L80.5594 93.1419L80.7045 93.2255ZM80.4582 93.0671L80.423 93.0363L80.4582 93.0671ZM80.4186 93.0319L80.379 92.9967L80.4186 93.0319ZM60.3513 89.1028L59.9774 89.0016L60.3513 89.1028ZM58.8557 88.632L58.4554 88.478L58.8557 88.632ZM84.3687 105.4C84.3687 105.453 84.3687 105.51 84.3951 105.567C84.3951 105.51 84.3951 105.453 84.3687 105.4ZM84.3995 105.572C84.3995 105.629 84.3995 105.686 84.4215 105.748L84.3995 105.572ZM84.4215 105.748V105.924V105.748ZM84.4215 105.937C84.4215 105.994 84.4215 106.051 84.4215 106.113C84.4215 106.051 84.4215 105.994 84.4215 105.937ZM35.2782 96.7982C35.222 98.2116 35.4355 99.6227 35.9072 100.956C36.4087 102.175 37.1917 102.822 38.1858 102.716C38.8676 102.633 39.5978 102.153 40.35 101.198C42.3735 104.335 50.3617 113.725 71.0184 108.533C71.1239 108.533 75.3688 111.129 78.7954 111.56C81.7778 111.934 84.4611 110.944 85.1825 106.487C86.4581 106.126 89.744 104.793 89.0578 100.767L89.5681 100.067H133.516C133.761 100.069 133.995 100.166 134.168 100.339C134.341 100.512 134.439 100.747 134.44 100.991V144.757C134.439 145.001 134.343 145.235 134.172 145.409C134.086 145.495 133.984 145.564 133.871 145.611C133.759 145.658 133.638 145.682 133.516 145.681H21.7739C21.5285 145.681 21.2931 145.584 21.1192 145.411C20.9453 145.238 20.847 145.003 20.8458 144.757V100.978C20.8449 100.731 20.9413 100.494 21.1141 100.318C21.2003 100.232 21.3026 100.165 21.4151 100.119C21.5276 100.073 21.648 100.049 21.7695 100.05H34.526C34.6957 100.036 34.854 99.959 34.9694 99.8338C35.0848 99.7087 35.1489 99.5446 35.1489 99.3744C35.1489 99.2041 35.0848 99.0401 34.9694 98.9149C34.854 98.7898 34.6957 98.7127 34.526 98.699H21.7695C21.1671 98.7013 20.59 98.9417 20.164 99.3678C19.738 99.7939 19.4977 100.371 19.4954 100.974V144.757C19.4965 145.36 19.7366 145.937 20.163 146.363C20.5894 146.789 21.1671 147.028 21.7695 147.028H133.499C133.799 147.03 134.096 146.973 134.373 146.86C134.651 146.747 134.904 146.58 135.117 146.369C135.33 146.158 135.499 145.907 135.614 145.631C135.73 145.354 135.79 145.057 135.791 144.757V100.978C135.788 100.376 135.548 99.7983 135.122 99.3722C134.696 98.9461 134.119 98.7057 133.516 98.7034H115.921C115.978 91.1135 113.106 84.5577 108.8 80.0213C110.678 78.9522 110.841 77.2362 108.984 75.8854C109.937 75.6097 110.831 75.1624 111.624 74.5655C112.943 73.5051 113.295 72.0399 112.429 70.6495C114.003 67.9798 114.966 64.9938 115.248 61.9069C115.552 58.4602 115.206 54.9871 114.228 51.6683C117.377 44.8312 118.93 37.3666 118.767 29.8403C118.73 27.1385 118.345 24.4528 117.619 21.85C116.924 19.5709 115.78 17.5205 114.228 17.5645C110.709 17.6657 99.5973 26.536 97.0152 28.5951C96.5534 26.6768 94.2704 26.2104 92.3613 26.2148C94.4991 23.5132 93.3422 21.0581 90.1619 20.7061C87.4566 20.4069 83.1238 21.6564 78.382 25.524L77.0975 25.458C75.5667 22.0128 69.2325 7.68231 66.1005 5.97074C64.7369 5.22276 62.7882 6.52513 61.1343 8.2411C59.2989 10.2282 57.7314 12.447 56.4716 14.841C52.9067 21.4652 50.8941 28.8135 50.586 36.3302C46.6271 40.5585 44.0758 45.6404 43.5479 50.8763C43.1081 55.6634 44.3353 60.5561 47.806 65.0484C47.7257 66.3338 47.7936 67.6241 48.0083 68.894C47.2677 69.6126 46.697 70.4877 46.3378 71.4552C45.9786 72.4227 45.84 73.4583 45.9321 74.4863C38.0978 81.4293 35.309 90.9287 35.2782 96.7982Z" fill="black"/>
<path fill-rule="evenodd" clip-rule="evenodd" d="M171.803 35.3621C172.956 29.4355 172.358 22.0832 168.518 17.2477C162.953 10.243 145.274 9.11224 135.773 15.1753C127.802 20.2396 125.929 32.3834 131.524 40.0393C128.858 47.9327 128.603 51.3206 138.025 45.0552C148.573 49.7191 168.913 50.2207 171.803 35.3621Z" fill="white"/>
<path fill-rule="evenodd" clip-rule="evenodd" d="M171.144 35.2389C171.785 31.9766 171.825 28.6247 171.262 25.3479C170.819 22.5573 169.695 19.9189 167.99 17.6657C165.35 14.3173 159.702 12.3858 153.571 11.981C147.439 11.5762 140.761 12.7906 136.134 15.7429C135.887 15.8969 135.65 16.0597 135.417 16.2313C132.034 18.6997 129.923 22.5716 129.228 26.7207C128.479 30.9133 129.296 35.235 131.524 38.8645C131.691 39.1285 131.867 39.3881 132.047 39.6345C132.111 39.7214 132.152 39.8225 132.168 39.9289C132.184 40.0354 132.175 40.1442 132.14 40.2461C130.877 43.9904 130.16 46.6347 130.763 47.4487C131.291 48.1615 133.305 47.3651 137.634 44.4832C137.728 44.4202 137.837 44.3823 137.95 44.3731C138.063 44.3638 138.177 44.3836 138.28 44.4304C140.54 45.4014 142.901 46.12 145.318 46.5731C150.06 47.4927 155.365 47.6027 159.958 46.3751C164.475 45.1652 168.315 42.666 170.198 38.3717C170.635 37.3665 170.96 36.3158 171.166 35.2389H171.144ZM172.582 25.1191C173.175 28.5557 173.136 32.0715 172.468 35.4941C172.242 36.6708 171.886 37.8189 171.408 38.9173C169.323 43.6384 165.17 46.3971 160.283 47.6775C155.48 48.9623 149.964 48.8523 145.046 47.8975C142.654 47.4458 140.316 46.7469 138.069 45.8119C133.182 49.0195 130.692 49.6135 129.681 48.2539C128.748 46.9999 129.426 44.1224 130.754 40.1449C130.626 39.9601 130.503 39.7797 130.385 39.5905C127.982 35.6803 127.098 31.0242 127.899 26.5051C128.651 22.026 130.943 17.8373 134.629 15.1489C134.884 14.9597 135.148 14.7837 135.412 14.6121C140.286 11.5058 147.227 10.2386 153.654 10.6522C160.081 11.0658 166.133 13.1822 169.05 16.8429C170.888 19.2687 172.101 22.1095 172.582 25.1147V25.1191Z" fill="black"/>
<path fill-rule="evenodd" clip-rule="evenodd" d="M148.446 39.7093C132.245 22.5716 144.487 17.5821 148.288 27.4291C151.939 12.1086 172.6 26.2059 148.446 39.7093Z" fill="#DF9FC2"/>
<path fill-rule="evenodd" clip-rule="evenodd" d="M1.97498 23.896C0.303439 18.9857 -0.0440652 12.6542 2.66119 8.0915C6.59811 1.47842 21.4968 -1.54872 30.2944 2.5036C37.6712 5.90034 40.6843 16.0025 36.831 23.1832C40.0289 29.5719 40.6359 32.4318 31.8824 28.1947C23.4279 33.4042 6.15823 36.2114 1.97498 23.896Z" fill="white"/>
<path fill-rule="evenodd" clip-rule="evenodd" d="M1.31959 24.1159C0.344623 21.2669 -0.102576 18.264 -4.3679e-05 15.2545C0.0651762 12.6192 0.779867 10.0408 2.08058 7.7482C4.14801 4.26786 9.03067 1.75991 14.516 0.637932C20.0013 -0.484047 26.0452 -0.193652 30.5759 1.89191C30.8311 2.00631 31.0774 2.1295 31.3105 2.2571C34.7856 4.12707 37.2401 7.449 38.4102 11.1977C39.631 14.9733 39.4244 19.0657 37.8295 22.6991C37.7548 22.8619 37.68 23.0203 37.6008 23.1743C39.1932 26.4126 40.0993 28.7886 39.4395 29.9942C38.7093 31.3142 36.4967 31.125 31.9352 28.9558C30.1378 30.0048 28.2379 30.8673 26.2651 31.5297C22.1743 32.9201 17.4675 33.6593 13.2183 33.1269C8.88551 32.5813 5.00578 30.7246 2.66122 26.923C2.11932 26.0388 1.67676 25.0974 1.34159 24.1159H1.31959ZM1.35038 15.3161C1.2511 18.1553 1.67303 20.9888 2.59524 23.6759C2.89189 24.5622 3.28734 25.4124 3.77412 26.2102C5.87674 29.6246 9.40017 31.2922 13.3591 31.7893C17.3972 32.2953 21.8839 31.5869 25.7989 30.2538C27.7958 29.5857 29.7134 28.7004 31.5173 27.6138L31.8296 27.4202L32.1595 27.5786C36.1184 29.5014 37.8779 29.9546 38.2342 29.3386C38.6345 28.6082 37.7196 26.4698 36.2196 23.4559L36.07 23.1523L36.2372 22.8487C36.3647 22.6111 36.4835 22.3735 36.5891 22.1359C38.0578 18.801 38.2472 15.0419 37.1213 11.5761C36.07 8.17059 33.8223 5.13905 30.6727 3.44508C30.4528 3.32481 30.2328 3.21482 30.0129 3.11508C25.7505 1.15272 19.9793 0.915127 14.7887 1.95791C9.59811 3.00069 5.09815 5.27984 3.24186 8.43018C2.05974 10.536 1.41604 12.9014 1.36798 15.3161H1.35038Z" fill="black"/>
<path fill-rule="evenodd" clip-rule="evenodd" d="M65.3616 31.3097C71.9598 30.2053 77.0756 41.2799 74.8498 47.893C75.5272 46.4146 77.1196 38.2352 73.1298 34.0992C69.1401 29.9633 65.3616 31.3097 65.3616 31.3097Z" fill="white"/>
<path fill-rule="evenodd" clip-rule="evenodd" d="M94.9654 59.9181C97.42 60.3317 99.2587 61.5724 99.0695 62.69C98.8804 63.8076 96.7382 64.3752 94.2836 63.9616C91.8291 63.548 89.986 62.3072 90.1752 61.1896C90.3643 60.0721 92.5065 59.5045 94.9654 59.9181Z" fill="#E3A7A9"/>
<path fill-rule="evenodd" clip-rule="evenodd" d="M63.4481 52.5482C65.9026 52.9618 67.7413 54.2026 67.5522 55.3202C67.363 56.4378 65.2208 57.0053 62.7663 56.5918C60.3118 56.1782 58.4687 54.933 58.6578 53.8198C58.847 52.7066 60.9892 52.1302 63.4481 52.5482Z" fill="#E3A7A9"/>
<path fill-rule="evenodd" clip-rule="evenodd" d="M90.1971 46.0583C98.4009 35.9781 106.332 38.8292 106.583 51.6726C106.754 60.5472 91.5871 57.7093 88.8071 55.3729C87.096 53.9165 86.7397 50.3086 90.1971 46.0583Z" fill="white"/>
<path fill-rule="evenodd" clip-rule="evenodd" d="M90.1971 46.0584C98.1149 36.3125 105.804 38.6533 106.53 50.4275C101.045 40.9237 92.2469 47.4795 87.5402 52.1875C87.5622 50.4803 88.3232 48.3639 90.1971 46.0584Z" fill="#EAD8E8"/>
<path fill-rule="evenodd" clip-rule="evenodd" d="M74.5023 42.2743C71.7926 29.563 63.4261 28.4894 57.347 39.8104C53.1505 47.6334 67.9437 52.0157 71.4847 51.1974C73.6973 50.6914 75.6591 47.6334 74.5023 42.2743Z" fill="white"/>
<path fill-rule="evenodd" clip-rule="evenodd" d="M74.5023 42.2744C72.0961 30.9887 65.2296 28.8767 59.476 36.471C62.5552 34.4514 68.234 32.8146 70.561 45.4644C70.8877 47.3544 71.3974 49.2082 72.0829 50.9995C74.0228 50.1239 75.5404 47.1495 74.5023 42.2744Z" fill="#EAD8E8"/>
<path fill-rule="evenodd" clip-rule="evenodd" d="M94.9346 40.752C92.0006 42.6352 87.2631 47.3167 87.1575 51.6462C87.1135 51.8574 87.2367 53.4326 87.6458 53.3182C87.8877 53.2302 87.9273 52.029 87.9713 51.721C88.7543 47.7611 92.6384 43.8671 95.568 42.0412C100.191 39.2692 103.657 40.8356 105.421 46.3927C105.588 46.9251 105.734 47.4487 105.861 47.9899C105.923 48.1791 106.13 49.1778 106.402 49.1338C106.675 49.0898 106.605 48.0163 106.6 47.8139C106.552 47.2222 106.465 46.6343 106.341 46.0539C104.841 39.5376 100.108 37.5709 94.9346 40.752Z" fill="black"/>
<path fill-rule="evenodd" clip-rule="evenodd" d="M74.2295 49.2791C74.102 49.4639 73.3718 50.5419 73.0902 50.2999C72.9539 50.1195 73.4465 49.2043 73.5521 48.9228C76.6313 41.3901 68.9774 24.5516 59.1901 37.6634C58.9525 37.8746 57.6857 39.9821 57.3602 39.7973C56.9511 39.5641 58.3191 37.3202 58.4335 37.0958C68.2736 21.4805 78.945 41.0425 74.2295 49.2791Z" fill="black"/>
<path fill-rule="evenodd" clip-rule="evenodd" d="M78.3864 58.4704C78.4017 58.4063 78.4295 58.3458 78.4682 58.2924C78.5068 58.239 78.5556 58.1937 78.6118 58.1592C78.668 58.1247 78.7304 58.1016 78.7955 58.0912C78.8606 58.0808 78.9271 58.0833 78.9912 58.0986C79.0553 58.1139 79.1158 58.1417 79.1692 58.1804C79.2226 58.2191 79.2678 58.2679 79.3023 58.3241C79.3368 58.3803 79.36 58.4427 79.3704 58.5078C79.3807 58.5729 79.3782 58.6395 79.3629 58.7036C79.2095 59.3422 78.9319 59.9444 78.5457 60.4756C78.1595 61.0068 77.6725 61.4567 77.1124 61.7996C76.5523 62.1424 75.9302 62.3715 75.2816 62.4737C74.6329 62.5759 73.9705 62.5492 73.3322 62.3951C72.0455 62.0834 70.9352 61.2733 70.2456 60.1429C69.556 59.0125 69.3435 57.6544 69.6548 56.3673C69.6704 56.3057 69.6972 56.2475 69.734 56.1957C69.8051 56.104 69.9058 56.0399 70.0189 56.0142C70.132 55.9885 70.2505 56.0028 70.3543 56.0547C70.458 56.1065 70.5406 56.1928 70.5879 56.2987C70.6352 56.4047 70.6443 56.5237 70.6137 56.6356C70.3686 57.6636 70.5407 58.7468 71.0922 59.6481C71.6438 60.5494 72.5299 61.1954 73.5565 61.4447C74.5853 61.6899 75.6693 61.5173 76.5712 60.9648C77.4732 60.4123 78.1195 59.5249 78.3688 58.4968L78.3864 58.4704Z" fill="black"/>
<path fill-rule="evenodd" clip-rule="evenodd" d="M78.3732 58.5188C78.3901 58.3915 78.4547 58.2754 78.5539 58.194C78.6532 58.1126 78.7796 58.072 78.9077 58.0804C79.0358 58.0888 79.1559 58.1456 79.2437 58.2392C79.3314 58.3329 79.3804 58.4564 79.3805 58.5848C79.3811 58.6401 79.3722 58.6952 79.3541 58.7476C79.1207 59.7637 79.2937 60.8308 79.8361 61.7211C80.3786 62.6114 81.2475 63.2544 82.2573 63.5127L82.3365 63.5347C83.3614 63.7679 84.4369 63.5885 85.3307 63.0353C86.2245 62.4821 86.8649 61.5994 87.1136 60.5779C87.1289 60.5138 87.1567 60.4533 87.1954 60.3999C87.234 60.3465 87.2828 60.3012 87.339 60.2667C87.3952 60.2322 87.4576 60.2091 87.5227 60.1987C87.5878 60.1883 87.6543 60.1908 87.7184 60.2061C87.7825 60.2214 87.843 60.2492 87.8964 60.2879C87.9498 60.3266 87.995 60.3754 88.0295 60.4316C88.064 60.4878 88.0872 60.5502 88.0975 60.6153C88.1079 60.6805 88.1054 60.747 88.0901 60.8111C87.7821 62.0966 86.9771 63.2075 85.8516 63.9003C84.7261 64.5931 83.3718 64.8113 82.0858 64.507H82.0594C80.7779 64.1996 79.6698 63.3984 78.9761 62.2777C78.2824 61.157 78.0594 59.8075 78.3556 58.5232L78.3732 58.5188Z" fill="black"/>
<path fill-rule="evenodd" clip-rule="evenodd" d="M73.8996 66.2979C73.8418 66.2627 73.7916 66.2164 73.7517 66.1617C73.7118 66.107 73.6831 66.045 73.6671 65.9792C73.6512 65.9135 73.6484 65.8452 73.6588 65.7783C73.6693 65.7115 73.6928 65.6473 73.728 65.5895C73.7633 65.5317 73.8095 65.4815 73.8642 65.4416C73.9189 65.4017 73.9808 65.373 74.0466 65.357C74.1124 65.3411 74.1806 65.3383 74.2475 65.3487C74.3143 65.3592 74.3785 65.3827 74.4362 65.4179C74.801 65.6426 75.1853 65.834 75.5843 65.9899C76.4839 66.3447 77.4284 66.5727 78.3908 66.6675C78.8182 66.7024 79.2478 66.7024 79.6752 66.6675C79.7429 66.6589 79.8117 66.6642 79.8773 66.6829C79.943 66.7016 80.0042 66.7334 80.0572 66.7764C80.1102 66.8194 80.154 66.8727 80.1859 66.933C80.2178 66.9934 80.2372 67.0596 80.2428 67.1276C80.2485 67.1957 80.2403 67.2642 80.2188 67.329C80.1972 67.3938 80.1628 67.4535 80.1176 67.5047C80.0724 67.5558 80.0173 67.5973 79.9556 67.6266C79.8939 67.6559 79.827 67.6724 79.7588 67.6751C79.2729 67.7164 78.7843 67.7164 78.2984 67.6751C77.7696 67.6221 77.245 67.5339 76.728 67.4111C76.2118 67.2862 75.7047 67.1259 75.2104 66.9315C74.7565 66.7574 74.318 66.5455 73.8996 66.2979Z" fill="black"/>
<path fill-rule="evenodd" clip-rule="evenodd" d="M102.984 61.0751C102.919 61.0838 102.852 61.0795 102.788 61.0624C102.724 61.0453 102.665 61.0158 102.612 60.9755C102.56 60.9353 102.515 60.8851 102.482 60.8278C102.449 60.7706 102.428 60.7073 102.419 60.6417C102.41 60.5762 102.415 60.5095 102.432 60.4456C102.449 60.3817 102.478 60.3218 102.519 60.2693C102.559 60.2168 102.609 60.1727 102.666 60.1396C102.724 60.1065 102.787 60.085 102.852 60.0764C102.892 60.0764 117.157 58.0568 131.203 62.5755C131.269 62.5924 131.332 62.6227 131.387 62.6647C131.441 62.7066 131.487 62.7593 131.521 62.8195C131.554 62.8796 131.575 62.946 131.582 63.0146C131.589 63.0832 131.582 63.1524 131.561 63.2182C131.541 63.2839 131.507 63.3447 131.462 63.3969C131.417 63.449 131.361 63.4914 131.299 63.5215C131.237 63.5515 131.17 63.5686 131.101 63.5716C131.032 63.5746 130.963 63.5636 130.899 63.5391C117.069 59.0864 103.024 61.0707 102.984 61.0751Z" fill="black"/>
<path fill-rule="evenodd" clip-rule="evenodd" d="M101.067 64.6789C100.933 64.6812 100.803 64.6309 100.706 64.5387C100.609 64.4465 100.552 64.3199 100.547 64.1861C100.546 64.1198 100.557 64.0539 100.581 63.9921C100.605 63.9303 100.641 63.8738 100.687 63.8259C100.732 63.7781 100.787 63.7398 100.848 63.7132C100.909 63.6867 100.974 63.6724 101.04 63.6713C101.084 63.6713 116.7 63.1433 132.223 69.2856C132.348 69.3346 132.448 69.4312 132.502 69.5542C132.555 69.6771 132.558 69.8163 132.509 69.9412C132.485 70.0029 132.449 70.0593 132.402 70.107C132.356 70.1546 132.301 70.1927 132.24 70.2189C132.179 70.245 132.114 70.2589 132.047 70.2595C131.981 70.2602 131.915 70.2477 131.854 70.2227C116.519 64.1685 101.111 64.6789 101.067 64.6789Z" fill="black"/>
<path fill-rule="evenodd" clip-rule="evenodd" d="M101.172 68.1987C101.106 68.1938 101.042 68.1759 100.983 68.1462C100.924 68.1164 100.872 68.0754 100.828 68.0253C100.785 67.9753 100.753 67.9172 100.732 67.8545C100.711 67.7917 100.703 67.7255 100.708 67.6597C100.713 67.5938 100.731 67.5295 100.761 67.4706C100.79 67.4116 100.831 67.3591 100.881 67.3159C100.931 67.2728 100.989 67.24 101.052 67.2194C101.115 67.1987 101.181 67.1906 101.247 67.1955C110.71 68.197 119.86 71.1595 128.115 75.8941C128.231 75.9618 128.316 76.0731 128.351 76.2034C128.386 76.3338 128.367 76.4726 128.299 76.5893C128.232 76.706 128.121 76.791 127.99 76.8257C127.86 76.8603 127.721 76.8418 127.604 76.7741C119.483 72.1133 110.482 69.193 101.172 68.1987Z" fill="black"/>
<path fill-rule="evenodd" clip-rule="evenodd" d="M56.8543 48.9886C56.9618 49.0661 57.0347 49.1827 57.0571 49.3134C57.0795 49.4441 57.0498 49.5783 56.9743 49.6873C56.8988 49.7962 56.7835 49.8712 56.6533 49.8961C56.5231 49.9209 56.3884 49.8936 56.2781 49.8201C56.2473 49.7937 44.6477 41.6319 30.3252 39.2955C30.1905 39.2757 30.0691 39.2031 29.9879 39.0938C29.9066 38.9845 29.8721 38.8473 29.892 38.7126C29.9118 38.5778 29.9843 38.4564 30.0936 38.3751C30.2029 38.2938 30.34 38.2593 30.4748 38.2792C45.0392 40.6727 56.8235 48.9666 56.8543 48.9886Z" fill="black"/>
<path fill-rule="evenodd" clip-rule="evenodd" d="M56.8279 53.0276C56.8857 53.0594 56.9367 53.1022 56.9779 53.1537C57.0192 53.2051 57.0499 53.2642 57.0683 53.3276C57.0867 53.3909 57.0924 53.4573 57.0851 53.5228C57.0778 53.5884 57.0577 53.6519 57.0258 53.7096C56.9941 53.768 56.9511 53.8195 56.8994 53.8613C56.8477 53.903 56.7883 53.9342 56.7246 53.953C56.6609 53.9718 56.5941 53.9778 56.528 53.9708C56.462 53.9638 56.398 53.9438 56.3396 53.912C56.3044 53.912 42.8177 46.4058 26.4278 44.8218C26.3576 44.8214 26.2881 44.8063 26.224 44.7776C26.1598 44.7489 26.1024 44.7071 26.0553 44.6549C26.0082 44.6027 25.9725 44.5413 25.9504 44.4746C25.9284 44.4078 25.9205 44.3372 25.9272 44.2672C25.934 44.1972 25.9552 44.1294 25.9896 44.0681C26.024 44.0068 26.0708 43.9534 26.127 43.9112C26.1832 43.8689 26.2476 43.8389 26.3161 43.823C26.3845 43.807 26.4556 43.8056 26.5246 43.8186C43.13 45.4202 56.7883 53.0056 56.8279 53.0276Z" fill="black"/>
<path fill-rule="evenodd" clip-rule="evenodd" d="M55.0552 56.0373C55.1779 56.0896 55.2749 56.1884 55.3252 56.312C55.3754 56.4356 55.3749 56.5741 55.3235 56.6972C55.2981 56.7584 55.2607 56.8139 55.2137 56.8605C55.1667 56.9072 55.1109 56.944 55.0495 56.969C54.9882 56.9939 54.9225 57.0065 54.8563 57.0059C54.7901 57.0053 54.7246 56.9917 54.6637 56.9656C45.9229 53.6108 36.5797 52.1123 27.2285 52.5657C27.1593 52.5747 27.0891 52.5694 27.0221 52.5499C26.9552 52.5305 26.8929 52.4974 26.8394 52.4528C26.7858 52.4082 26.742 52.3529 26.7108 52.2906C26.6796 52.2282 26.6616 52.1601 26.6579 52.0904C26.6543 52.0208 26.6651 51.9512 26.6896 51.8859C26.7141 51.8206 26.7519 51.7611 26.8005 51.7111C26.8491 51.6611 26.9076 51.6218 26.9721 51.5954C27.0367 51.5691 27.106 51.5564 27.1757 51.5581C36.6787 51.1036 46.1725 52.6289 55.0552 56.0373Z" fill="black"/>
<path fill-rule="evenodd" clip-rule="evenodd" d="M80.4275 52.1478C80.4275 52.1478 83.1547 52.7154 84.4304 53.8418C85.706 54.9682 81.9143 60.1117 78.7119 59.3329C75.5096 58.5541 74.4627 52.2534 76.1122 51.853C77.7618 51.4526 80.4275 52.1478 80.4275 52.1478Z" fill="black"/>
<path fill-rule="evenodd" clip-rule="evenodd" d="M90.1972 46.054C90.9746 45.09 91.8198 44.1828 92.7265 43.3392C93.9043 42.9574 95.1648 42.9087 96.3687 43.1984C100.116 44.0784 102.386 48.0383 101.432 51.9983C101.117 53.3813 100.41 54.6442 99.396 55.6354C98.3816 56.6266 97.1029 57.3039 95.7132 57.5861C93.8771 57.3833 92.0757 56.9395 90.3555 56.2662C88.7983 55.0298 87.6591 54.6866 87.6767 51.0611C88.0926 49.2102 88.9583 47.4904 90.1972 46.054Z" fill="black"/>
<path fill-rule="evenodd" clip-rule="evenodd" d="M74.5023 42.27C74.2466 41.0642 73.9071 39.8778 73.4861 38.7193C72.6127 37.842 71.5134 37.2237 70.3102 36.9329C66.5625 36.0309 62.7531 38.4993 61.7986 42.446C61.4496 43.8231 61.5061 45.2717 61.961 46.6175C62.416 47.9633 63.2502 49.1488 64.3631 50.0315C66.0948 50.6847 67.9051 51.1063 69.7472 51.2854C71.6914 50.8939 72.8659 51.1095 74.4979 47.8711C74.9617 46.0331 74.9632 44.1088 74.5023 42.27Z" fill="black"/>
<path fill-rule="evenodd" clip-rule="evenodd" d="M68.7047 48.7598C69.7372 48.7598 70.7466 48.4533 71.6049 47.8792C72.4632 47.305 73.1318 46.489 73.5262 45.5344C73.9205 44.5799 74.0228 43.5297 73.8201 42.517C73.6173 41.5043 73.1187 40.5745 72.3874 39.8454C71.656 39.1163 70.7248 38.6207 69.7116 38.4214C68.6985 38.222 67.649 38.3279 66.696 38.7255C65.743 39.1232 64.9295 39.7948 64.3584 40.6552C63.7872 41.5157 63.4842 42.5263 63.4877 43.5591C63.4958 44.939 64.0486 46.2598 65.0257 47.2338C66.0029 48.2079 67.3251 48.7564 68.7047 48.7598Z" fill="url(#paint0_linear)"/>
<path fill-rule="evenodd" clip-rule="evenodd" d="M68.7046 46.7535C69.3397 46.7535 69.9606 46.5651 70.4886 46.2122C71.0167 45.8592 71.4283 45.3576 71.6713 44.7707C71.9144 44.1838 71.978 43.538 71.8541 42.9149C71.7302 42.2919 71.4243 41.7195 70.9752 41.2703C70.5262 40.8211 69.954 40.5152 69.3311 40.3913C68.7082 40.2674 68.0626 40.331 67.4758 40.5741C66.889 40.8172 66.3875 41.2289 66.0347 41.7571C65.6819 42.2853 65.4935 42.9063 65.4935 43.5415C65.4959 44.3927 65.8349 45.2083 66.4366 45.8102C67.0383 46.412 67.8537 46.7511 68.7046 46.7535Z" fill="black"/>
<path fill-rule="evenodd" clip-rule="evenodd" d="M66.2633 42.1863C66.5382 42.1863 66.807 42.1047 67.0356 41.9519C67.2641 41.7992 67.4423 41.582 67.5475 41.328C67.6527 41.0739 67.6803 40.7943 67.6266 40.5246C67.573 40.2549 67.4406 40.0072 67.2462 39.8127C67.0518 39.6183 66.8041 39.4859 66.5345 39.4322C66.2649 39.3786 65.9854 39.4061 65.7314 39.5114C65.4774 39.6166 65.2603 39.7948 65.1076 40.0234C64.9548 40.2521 64.8733 40.5209 64.8733 40.7959C64.8745 41.1643 65.0213 41.5173 65.2817 41.7778C65.5421 42.0382 65.895 42.1851 66.2633 42.1863Z" fill="white"/>
<path fill-rule="evenodd" clip-rule="evenodd" d="M67.1211 43.5591C67.2203 43.5591 67.3172 43.5297 67.3997 43.4746C67.4822 43.4194 67.5464 43.3411 67.5844 43.2495C67.6223 43.1578 67.6323 43.0569 67.6129 42.9596C67.5936 42.8623 67.5458 42.773 67.4757 42.7028C67.4056 42.6327 67.3162 42.5849 67.2189 42.5655C67.1217 42.5462 67.0208 42.5561 66.9292 42.5941C66.8376 42.6321 66.7592 42.6963 66.7041 42.7788C66.649 42.8613 66.6196 42.9583 66.6196 43.0575C66.6196 43.1905 66.6725 43.3181 66.7665 43.4122C66.8606 43.5062 66.9881 43.5591 67.1211 43.5591Z" fill="white"/>
<path fill-rule="evenodd" clip-rule="evenodd" d="M94.8775 55.2496C95.9091 55.2487 96.9173 54.9419 97.7747 54.368C98.632 53.7941 99.3 52.9788 99.6942 52.0252C100.088 51.0716 100.191 50.0225 99.9893 49.0106C99.7875 47.9986 99.2903 47.0692 98.5605 46.3398C97.8307 45.6105 96.9011 45.1139 95.8893 44.9129C94.8774 44.7119 93.8286 44.8155 92.8756 45.2106C91.9226 45.6057 91.1081 46.2746 90.535 47.1326C89.962 47.9907 89.6561 48.9994 89.6561 50.0313C89.6585 51.4153 90.2095 52.7419 91.1883 53.7202C92.1671 54.6984 93.4938 55.2484 94.8775 55.2496Z" fill="url(#paint1_linear)"/>
<path fill-rule="evenodd" clip-rule="evenodd" d="M94.8774 53.2391C95.5125 53.2391 96.1334 53.0507 96.6614 52.6978C97.1895 52.3448 97.6011 51.8432 97.8441 51.2563C98.0872 50.6694 98.1508 50.0236 98.0269 49.4005C97.9029 48.7775 97.5971 48.2051 97.148 47.7559C96.699 47.3067 96.1268 47.0008 95.5039 46.8769C94.881 46.753 94.2353 46.8166 93.6486 47.0597C93.0618 47.3028 92.5603 47.7145 92.2075 48.2427C91.8546 48.7709 91.6663 49.3919 91.6663 50.0271C91.6675 50.8786 92.0062 51.6949 92.6081 52.297C93.2101 52.8991 94.0262 53.2379 94.8774 53.2391Z" fill="black"/>
<path fill-rule="evenodd" clip-rule="evenodd" d="M93.5051 49.1382C93.78 49.1382 94.0487 49.0566 94.2773 48.9039C94.5059 48.7511 94.6841 48.5339 94.7893 48.2799C94.8945 48.0258 94.922 47.7463 94.8684 47.4765C94.8147 47.2068 94.6824 46.9591 94.488 46.7647C94.2936 46.5702 94.0459 46.4378 93.7762 46.3841C93.5066 46.3305 93.2271 46.358 92.9731 46.4633C92.7191 46.5685 92.502 46.7467 92.3493 46.9753C92.1966 47.204 92.1151 47.4728 92.1151 47.7478C92.1151 48.1165 92.2615 48.4702 92.5222 48.7309C92.7829 48.9917 93.1364 49.1382 93.5051 49.1382Z" fill="white"/>
<path fill-rule="evenodd" clip-rule="evenodd" d="M94.3628 50.4934C94.4609 50.4925 94.5566 50.4626 94.6377 50.4075C94.7189 50.3523 94.7819 50.2744 94.8189 50.1834C94.8558 50.0925 94.865 49.9927 94.8454 49.8965C94.8257 49.8004 94.778 49.7122 94.7083 49.6431C94.6386 49.574 94.5501 49.5271 94.4538 49.5083C94.3575 49.4894 94.2577 49.4995 94.1672 49.5373C94.0766 49.575 93.9992 49.6388 93.9448 49.7204C93.8904 49.8021 93.8613 49.898 93.8613 49.9962C93.8625 50.1285 93.9158 50.2549 94.0097 50.348C94.1037 50.4412 94.2306 50.4934 94.3628 50.4934Z" fill="white"/>
<path fill-rule="evenodd" clip-rule="evenodd" d="M20.8458 101.673H36.2724C36.1306 101.445 36.0084 101.205 35.9073 100.956C35.7872 100.671 35.6887 100.376 35.6126 100.076H21.774C21.5307 100.067 21.2936 100.154 21.1142 100.318C20.9408 100.492 20.8429 100.728 20.8414 100.974L20.8458 101.673Z" fill="white"/>
<path fill-rule="evenodd" clip-rule="evenodd" d="M89.1502 101.779H134.458V100.978C134.457 100.733 134.359 100.499 134.186 100.326C134.013 100.153 133.779 100.055 133.534 100.054H89.5681L89.0579 100.758C89.1169 101.095 89.1478 101.437 89.1502 101.779Z" fill="white"/>
<path d="M20.9129 20.0037C20.8487 19.4238 20.6552 18.9845 20.3324 18.6859C20.0097 18.3873 19.4724 18.131 18.7207 17.9171C17.969 17.7031 17.2719 17.4794 16.6295 17.246C15.9871 17.0125 15.4238 16.7219 14.9395 16.3743C14.4553 16.0267 14.0669 15.6054 13.7744 15.1102C13.4819 14.615 13.2945 13.9968 13.2124 13.2554C13.0751 12.0148 13.3804 10.9481 14.1284 10.0553C14.8756 9.1552 15.939 8.56182 17.3187 8.27521L17.0615 5.95194L18.8117 5.75802L19.0739 8.12534C20.4388 8.17474 21.5532 8.61227 22.4173 9.43794C23.2878 10.2554 23.8003 11.3616 23.9547 12.7562L20.234 13.1685C20.1495 12.4051 19.9377 11.8341 19.5986 11.4555C19.2596 11.077 18.8185 10.9178 18.2754 10.978C17.7911 11.0316 17.4302 11.2277 17.1928 11.566C16.962 11.8963 16.8762 12.3293 16.9356 12.8652C16.9957 13.4084 17.1978 13.8244 17.5418 14.1132C17.8849 14.3947 18.414 14.6445 19.129 14.8625C19.8432 15.0731 20.5187 15.3029 21.1554 15.5519C21.7987 15.7927 22.3624 16.0869 22.8466 16.4345C23.3308 16.7822 23.7269 17.2064 24.035 17.7073C24.343 18.2081 24.5381 18.8293 24.6202 19.5707C24.7592 20.8259 24.4726 21.8942 23.7605 22.7756C23.0557 23.6562 22.0245 24.2386 20.6668 24.5227L20.9119 26.7359L19.1616 26.9298L18.9153 24.7056C17.2968 24.7141 16.007 24.3034 15.046 23.4736C14.0914 22.6357 13.5301 21.457 13.3618 19.9375L17.0715 19.5265C17.1641 20.3633 17.4183 20.9816 17.834 21.3814C18.2563 21.773 18.8086 21.931 19.4911 21.8554C19.9901 21.8001 20.3665 21.6098 20.6202 21.2845C20.8731 20.9518 20.9707 20.5249 20.9129 20.0037Z" fill="#DF9FC2"/>
<path d="M46.6158 123.572C46.6158 122.376 46.1923 121.627 45.3452 121.324C45.0542 121.219 44.7138 121.167 44.3241 121.167C43.9343 121.167 43.5991 121.212 43.3185 121.3C43.0379 121.389 42.804 121.509 42.617 121.661C42.2376 121.969 42.0479 122.376 42.0479 122.882C42.0479 123.65 42.6092 124.305 43.7317 124.848L44.706 125.31C45.179 125.53 45.6337 125.754 46.0702 125.984C46.5119 126.208 46.9017 126.467 47.2395 126.759C47.9826 127.396 48.3542 128.185 48.3542 129.125C48.3542 130.132 47.9176 130.944 47.0446 131.56C46.2287 132.135 45.2049 132.422 43.9733 132.422C42.9963 132.422 42.1337 132.268 41.3853 131.96C40.8345 131.74 40.4421 131.43 40.2083 131.028C40.0888 130.824 40.029 130.576 40.029 130.284C40.029 129.699 40.1745 129.153 40.4655 128.647C40.5643 128.527 40.6994 128.467 40.8709 128.467C41.2035 128.467 41.3957 128.566 41.4477 128.764C41.5153 129.668 41.7907 130.325 42.274 130.738C42.7625 131.15 43.4432 131.357 44.3163 131.357C45.3193 131.357 45.9922 131.028 46.3352 130.37C46.4547 130.14 46.5145 129.871 46.5145 129.563C46.5145 129.25 46.4314 128.97 46.2651 128.725C46.0988 128.48 45.8779 128.253 45.6025 128.044C45.1815 127.73 44.6229 127.428 43.9265 127.135C43.2354 126.843 42.6949 126.587 42.3052 126.368C41.9206 126.148 41.5802 125.892 41.284 125.6C40.6396 124.963 40.3174 124.177 40.3174 123.243C40.3174 122.287 40.7254 121.522 41.5412 120.948C42.3259 120.394 43.3393 120.118 44.5813 120.118C46.1559 120.118 47.1849 120.444 47.6682 121.097C47.8449 121.332 47.9332 121.64 47.9332 122.021C47.9332 122.402 47.8968 122.734 47.8241 123.016C47.7565 123.297 47.689 123.48 47.6214 123.564C47.5071 123.705 47.3096 123.775 47.029 123.775C46.7536 123.775 46.6158 123.707 46.6158 123.572Z" fill="white"/>
<path d="M61.1693 121.183C60.7743 121.183 60.5691 121.595 60.5535 122.42V127.12C60.5535 128.843 60.1299 130.158 59.2829 131.067C58.4514 131.97 57.2639 132.422 55.7205 132.422C54.4109 132.422 53.3378 132.09 52.5011 131.427C51.441 130.597 50.9109 129.218 50.9109 127.292V121.903C50.9057 121.679 50.8798 121.522 50.833 121.433C50.7914 121.345 50.6927 121.285 50.5368 121.253C50.3809 121.222 50.2406 121.193 50.1158 121.167C49.9963 121.136 49.895 121.099 49.8118 121.058C49.6455 120.974 49.5624 120.833 49.5624 120.635C49.5624 120.452 49.604 120.308 49.6871 120.204C49.8066 120.246 50.0639 120.266 50.4588 120.266H53.4833C54.0758 120.266 54.372 120.468 54.372 120.87C54.372 121.047 54.333 121.18 54.255 121.269C54.0628 121.217 53.8809 121.191 53.7094 121.191C53.5431 121.191 53.408 121.212 53.304 121.253C53.2053 121.29 53.1144 121.358 53.0312 121.457C52.8441 121.681 52.7506 122.029 52.7506 122.499V126.744C52.7506 128.357 53.0728 129.516 53.7172 130.221C54.2161 130.759 54.9072 131.028 55.7907 131.028C58.0253 131.028 59.1426 129.628 59.1426 126.83V122.115C59.1426 121.702 59.0282 121.444 58.7996 121.339C58.7268 121.303 58.6255 121.272 58.4956 121.245C58.3708 121.219 58.2461 121.193 58.1214 121.167C58.0019 121.136 57.9005 121.099 57.8174 121.058C57.6511 120.974 57.568 120.833 57.568 120.635C57.568 120.441 57.6095 120.298 57.6927 120.204C57.8122 120.246 58.0694 120.266 58.4644 120.266H61.0524C61.3174 120.266 61.5305 120.308 61.6916 120.392C61.8579 120.475 61.941 120.632 61.941 120.862C61.941 121.039 61.902 121.172 61.8241 121.261C61.6162 121.209 61.3979 121.183 61.1693 121.183Z" fill="white"/>
<path d="M70.9599 123.658C70.9807 123.512 70.9911 123.297 70.9911 123.016C70.9911 122.734 70.9365 122.478 70.8274 122.248C70.7183 122.013 70.5702 121.83 70.3831 121.7C70.0557 121.475 69.562 121.363 68.902 121.363C68.2472 121.363 67.6678 121.483 67.1637 121.723C66.6648 121.958 66.2465 122.29 65.9087 122.718C65.2279 123.579 64.8875 124.752 64.8875 126.234C64.8875 127.639 65.2331 128.759 65.9243 129.594C66.6414 130.466 67.6106 130.902 68.8319 130.902C70.0323 130.902 70.9677 130.639 71.6381 130.111C71.8408 129.955 72.0253 129.785 72.1916 129.602C72.3475 129.649 72.4748 129.788 72.5735 130.017C72.6047 130.096 72.6203 130.2 72.6203 130.331C72.6203 130.456 72.5267 130.644 72.3397 130.895C72.1578 131.14 71.8901 131.378 71.5368 131.607C70.6949 132.161 69.6867 132.437 68.5123 132.437C66.8285 132.437 65.4878 131.923 64.49 130.895C63.5026 129.887 63.0089 128.537 63.0089 126.845C63.0089 125.812 63.1726 124.88 63.5 124.049C63.8274 123.219 64.2743 122.514 64.8408 121.935C65.4072 121.35 66.0672 120.901 66.8207 120.588C67.5795 120.274 68.3148 120.118 69.0267 120.118C69.7439 120.118 70.3181 120.178 70.7495 120.298C71.1808 120.418 71.5394 120.582 71.8252 120.791C72.3968 121.219 72.6826 121.789 72.6826 122.499C72.6826 123.042 72.4826 123.425 72.0824 123.65C71.9473 123.728 71.8018 123.767 71.6459 123.767C71.3237 123.767 71.095 123.731 70.9599 123.658Z" fill="white"/>
<path d="M82.3252 123.658C82.346 123.512 82.3564 123.297 82.3564 123.016C82.3564 122.734 82.3018 122.478 82.1927 122.248C82.0835 122.013 81.9354 121.83 81.7483 121.7C81.4209 121.475 80.9273 121.363 80.2673 121.363C79.6125 121.363 79.033 121.483 78.529 121.723C78.0301 121.958 77.6117 122.29 77.274 122.718C76.5932 123.579 76.2528 124.752 76.2528 126.234C76.2528 127.639 76.5984 128.759 77.2895 129.594C78.0067 130.466 78.9759 130.902 80.1971 130.902C81.3976 130.902 82.333 130.639 83.0033 130.111C83.206 129.955 83.3905 129.785 83.5568 129.602C83.7127 129.649 83.84 129.788 83.9388 130.017C83.9699 130.096 83.9855 130.2 83.9855 130.331C83.9855 130.456 83.892 130.644 83.7049 130.895C83.523 131.14 83.2554 131.378 82.902 131.607C82.0601 132.161 81.052 132.437 79.8775 132.437C78.1938 132.437 76.853 131.923 75.8552 130.895C74.8679 129.887 74.3742 128.537 74.3742 126.845C74.3742 125.812 74.5379 124.88 74.8653 124.049C75.1927 123.219 75.6396 122.514 76.206 121.935C76.7725 121.35 77.4325 120.901 78.186 120.588C78.9447 120.274 79.68 120.118 80.392 120.118C81.1091 120.118 81.6834 120.178 82.1147 120.298C82.546 120.418 82.9046 120.582 83.1904 120.791C83.7621 121.219 84.0479 121.789 84.0479 122.499C84.0479 123.042 83.8478 123.425 83.4477 123.65C83.3126 123.728 83.167 123.767 83.0111 123.767C82.6889 123.767 82.4603 123.731 82.3252 123.658Z" fill="white"/>
<path d="M94.2439 128.788C94.3842 128.668 94.5323 128.608 94.6882 128.608C94.9272 128.608 95.065 128.642 95.1013 128.709C95.304 129.117 95.4053 129.79 95.4053 130.73C95.4053 131.383 95.3326 131.855 95.1871 132.148C95.1403 132.231 95.0909 132.273 95.039 132.273H86.4332C85.8148 132.273 85.5056 132.088 85.5056 131.717C85.5056 131.518 85.5471 131.367 85.6303 131.263C85.807 131.315 85.9785 131.341 86.1448 131.341C86.3111 131.341 86.454 131.328 86.5735 131.302C86.693 131.276 86.8048 131.221 86.9087 131.137C87.1581 130.944 87.2829 130.618 87.2829 130.158V122.224C87.2829 121.77 87.101 121.48 86.7372 121.355C86.6333 121.319 86.5241 121.287 86.4098 121.261C86.3007 121.23 86.1941 121.201 86.0902 121.175C85.9915 121.144 85.9031 121.11 85.8252 121.073C85.6485 120.979 85.5601 120.851 85.5601 120.689C85.5601 120.475 85.6017 120.321 85.6849 120.227C85.7784 120.253 85.8719 120.266 85.9655 120.266H93.9399C94.418 120.266 94.7168 120.311 94.8363 120.4C95.0546 120.556 95.1637 120.901 95.1637 121.433C95.1637 121.945 95.1195 122.363 95.0312 122.687C94.948 123.01 94.8883 123.203 94.8519 123.266C94.7999 123.36 94.6986 123.407 94.5479 123.407C94.3296 123.407 94.1789 123.381 94.0958 123.329C94.0178 123.271 93.9762 123.23 93.971 123.203C93.9035 122.457 93.7866 121.982 93.6203 121.778C93.454 121.569 93.2565 121.428 93.0278 121.355C92.8044 121.277 92.5108 121.238 92.147 121.238H90.4087C89.8578 121.238 89.52 121.292 89.3953 121.402C89.2758 121.512 89.2004 121.64 89.1693 121.786C89.1381 121.927 89.1225 122.11 89.1225 122.334V125.671L89.5824 125.678C90.7309 125.678 91.7962 125.577 92.7784 125.373C92.8512 125.41 92.9161 125.514 92.9733 125.686C93.0304 125.853 93.059 126.02 93.059 126.187C93.059 126.469 93.0122 126.715 92.9187 126.924C92.5757 126.955 92.1808 126.971 91.7339 126.971C91.2869 126.971 90.4165 126.898 89.1225 126.751V130.284C89.1225 130.675 89.2264 130.939 89.4343 131.075C89.611 131.19 89.928 131.247 90.3853 131.247L91.5624 131.216C92.7004 131.174 93.441 131.015 93.784 130.738C93.9762 130.581 94.1036 130.375 94.1659 130.119C94.2283 129.863 94.2595 129.607 94.2595 129.352C94.2595 129.091 94.2543 128.903 94.2439 128.788Z" fill="white"/>
<path d="M103.645 123.572C103.645 122.376 103.221 121.627 102.374 121.324C102.083 121.219 101.743 121.167 101.353 121.167C100.963 121.167 100.628 121.212 100.347 121.3C100.067 121.389 99.833 121.509 99.6459 121.661C99.2665 121.969 99.0768 122.376 99.0768 122.882C99.0768 123.65 99.6381 124.305 100.761 124.848L101.735 125.31C102.208 125.53 102.663 125.754 103.099 125.984C103.541 126.208 103.931 126.467 104.268 126.759C105.011 127.396 105.383 128.185 105.383 129.125C105.383 130.132 104.947 130.944 104.073 131.56C103.258 132.135 102.234 132.422 101.002 132.422C100.025 132.422 99.1626 132.268 98.4142 131.96C97.8634 131.74 97.471 131.43 97.2372 131.028C97.1177 130.824 97.0579 130.576 97.0579 130.284C97.0579 129.699 97.2034 129.153 97.4944 128.647C97.5932 128.527 97.7283 128.467 97.8998 128.467C98.2324 128.467 98.4246 128.566 98.4766 128.764C98.5442 129.668 98.8196 130.325 99.3029 130.738C99.7914 131.15 100.472 131.357 101.345 131.357C102.348 131.357 103.021 131.028 103.364 130.37C103.484 130.14 103.543 129.871 103.543 129.563C103.543 129.25 103.46 128.97 103.294 128.725C103.128 128.48 102.907 128.253 102.631 128.044C102.21 127.73 101.652 127.428 100.955 127.135C100.264 126.843 99.7238 126.587 99.3341 126.368C98.9495 126.148 98.6091 125.892 98.3129 125.6C97.6685 124.963 97.3463 124.177 97.3463 123.243C97.3463 122.287 97.7543 121.522 98.5702 120.948C99.3549 120.394 100.368 120.118 101.61 120.118C103.185 120.118 104.214 120.444 104.697 121.097C104.874 121.332 104.962 121.64 104.962 122.021C104.962 122.402 104.926 122.734 104.853 123.016C104.785 123.297 104.718 123.48 104.65 123.564C104.536 123.705 104.339 123.775 104.058 123.775C103.782 123.775 103.645 123.707 103.645 123.572Z" fill="white"/>
<path d="M113.95 123.572C113.95 122.376 113.526 121.627 112.679 121.324C112.388 121.219 112.048 121.167 111.658 121.167C111.268 121.167 110.933 121.212 110.653 121.3C110.372 121.389 110.138 121.509 109.951 121.661C109.572 121.969 109.382 122.376 109.382 122.882C109.382 123.65 109.943 124.305 111.066 124.848L112.04 125.31C112.513 125.53 112.968 125.754 113.404 125.984C113.846 126.208 114.236 126.467 114.573 126.759C115.317 127.396 115.688 128.185 115.688 129.125C115.688 130.132 115.252 130.944 114.379 131.56C113.563 132.135 112.539 132.422 111.307 132.422C110.33 132.422 109.468 132.268 108.719 131.96C108.169 131.74 107.776 131.43 107.542 131.028C107.423 130.824 107.363 130.576 107.363 130.284C107.363 129.699 107.509 129.153 107.8 128.647C107.898 128.527 108.033 128.467 108.205 128.467C108.537 128.467 108.73 128.566 108.782 128.764C108.849 129.668 109.125 130.325 109.608 130.738C110.096 131.15 110.777 131.357 111.65 131.357C112.653 131.357 113.326 131.028 113.669 130.37C113.789 130.14 113.849 129.871 113.849 129.563C113.849 129.25 113.765 128.97 113.599 128.725C113.433 128.48 113.212 128.253 112.937 128.044C112.516 127.73 111.957 127.428 111.261 127.135C110.569 126.843 110.029 126.587 109.639 126.368C109.255 126.148 108.914 125.892 108.618 125.6C107.974 124.963 107.651 124.177 107.651 123.243C107.651 122.287 108.059 121.522 108.875 120.948C109.66 120.394 110.673 120.118 111.915 120.118C113.49 120.118 114.519 120.444 115.002 121.097C115.179 121.332 115.267 121.64 115.267 122.021C115.267 122.402 115.231 122.734 115.158 123.016C115.091 123.297 115.023 123.48 114.955 123.564C114.841 123.705 114.644 123.775 114.363 123.775C114.088 123.775 113.95 123.707 113.95 123.572Z" fill="white"/>
</g>
<defs>
<linearGradient id="paint0_linear" x1="66.4833" y1="49.2658" x2="69.2822" y2="42.0593" gradientUnits="userSpaceOnUse">
<stop stop-color="#A86DA8"/>
<stop offset="1" stop-color="#815087"/>
</linearGradient>
<linearGradient id="paint1_linear" x1="2287.35" y1="1367.34" x2="2353.74" y2="1196.4" gradientUnits="userSpaceOnUse">
<stop stop-color="#A86DA8"/>
<stop offset="1" stop-color="#815087"/>
</linearGradient>
<clipPath id="clip0">
<rect width="173" height="148" fill="white"/>
</clipPath>
</defs>
</svg>
