<svg width="24" height="24" viewBox="0 0 24 24" fill="none" xmlns="http://www.w3.org/2000/svg">
<path d="M22 4H2.00002C0.896953 4 0 4.897 0 6.00002V18C0 19.103 0.896953 20 2.00002 20H22C23.103 20 24 19.103 24 18V6.00002C24 4.897 23.103 4 22 4Z" fill="black"/>
<path d="M22.9999 5.99999V7.94948C21.473 7.72809 20.2718 6.52691 20.0504 5H21.9999C22.5512 5 22.9999 5.44874 22.9999 5.99999Z" fill="#7CB342"/>
<path d="M23 8.94945V15.0505C20.9225 15.2842 19.2843 16.9225 19.0506 19H4.94951C4.7158 16.9225 3.07756 15.2842 1.00006 15.0505V8.94945C3.07756 8.71573 4.71584 7.0775 4.94951 5H19.0506C19.2843 7.0775 20.9225 8.71573 23 8.94945Z" fill="#96C268"/>
<path d="M2.00005 5H3.94953C3.72814 6.52691 2.52697 7.72809 1.00006 7.94948V5.99999C1.00001 5.44874 1.44875 5 2.00005 5Z" fill="#7CB342"/>
<path opacity="0.2" d="M22.0001 5H20.0506C20.102 5.35452 20.2111 5.68878 20.3599 5.99999H22.0001C22.5513 5.99999 23.0001 6.44872 23.0001 6.99998V5.99999C23.0001 5.44874 22.5514 5 22.0001 5Z" fill="white"/>
<path opacity="0.2" d="M19.2963 5.99998C19.1821 5.67997 19.09 5.34945 19.0506 5H4.9496C4.91028 5.3495 4.81821 5.68002 4.70398 5.99998H19.2963Z" fill="white"/>
<path opacity="0.2" d="M2.00005 5.99999H3.6402C3.78908 5.68878 3.89815 5.35447 3.94953 5H2.00005C1.4488 5 1.00006 5.44874 1.00006 5.99999V6.99998C1.00001 6.44872 1.44875 5.99999 2.00005 5.99999Z" fill="white"/>
<path d="M1 18.0003V16.0508C2.52691 16.2722 3.72808 17.4733 3.94947 19.0002H2.00003C1.44873 19.0002 1 18.5515 1 18.0003Z" fill="#7CB342"/>
<path d="M12 17.5C14.2092 17.5 16 15.0375 16 12C16 8.96242 14.2092 6.5 12 6.5C9.79091 6.5 8.00006 8.96242 8.00006 12C8.00006 15.0375 9.79091 17.5 12 17.5Z" fill="#7CB342"/>
<path d="M22.0001 19.0002H20.0506C20.272 17.4733 21.4732 16.2722 23.0001 16.0508V18.0003C23.0001 18.5515 22.5514 19.0002 22.0001 19.0002Z" fill="#7CB342"/>
<path d="M11.75 10H13.5C13.7763 10 14 9.77637 14 9.5C14 9.22362 13.7763 9.00003 13.5 9.00003H12.5V8.50001C12.5 8.22364 12.2763 8 12 8C11.7236 8 11.4999 8.22364 11.4999 8.50001V9.0253C10.654 9.14787 9.99994 9.87073 9.99994 10.75C9.99994 11.7148 10.7851 12.5 11.7499 12.5H12.2499C12.6635 12.5 13 12.8364 13 13.25C13 13.6636 12.6635 14 12.2499 14H10.5C10.2236 14 9.99994 14.2236 9.99994 14.5C9.99994 14.7764 10.2236 15 10.5 15H11.4999V15.5C11.4999 15.7764 11.7236 16.0001 12 16.0001C12.2763 16.0001 12.5 15.7764 12.5 15.5V14.9748C13.3459 14.8522 14 14.1293 14 13.25C14 12.2852 13.2148 11.5001 12.25 11.5001H11.75C11.3364 11.5001 11 11.1636 11 10.7501C11 10.3364 11.3364 10 11.75 10Z" fill="black"/>
<path d="M5.99999 11C5.44874 11 5 11.4487 5 12C5 12.5512 5.44874 13 5.99999 13C6.55124 13 6.99998 12.5512 6.99998 12C6.99998 11.4487 6.55124 11 5.99999 11ZM6.00046 12C6.00046 12 5.99999 11.9995 5.99999 11.999L6.50001 12H6.00046Z" fill="black"/>
<path d="M18 11C17.4487 11 17 11.4487 17 12C17 12.5512 17.4487 13 18 13C18.5512 13 19 12.5512 19 12C19 11.4487 18.5512 11 18 11ZM18.0005 12C18.0005 12 18 11.9995 18 11.999L18.5 12H18.0005Z" fill="black"/>
<path d="M22 4H2.00002C0.896953 4 0 4.897 0 6.00002V18C0 19.103 0.896953 20 2.00002 20H22C23.103 20 24 19.103 24 18V6.00002C24 4.897 23.103 4 22 4Z" fill="url(#paint0_linear)"/>
<defs>
<linearGradient id="paint0_linear" x1="-0.324698" y1="6.25411" x2="24.3248" y2="17.7479" gradientUnits="userSpaceOnUse">
<stop stop-color="white" stop-opacity="0.2"/>
<stop offset="1" stop-color="white" stop-opacity="0"/>
</linearGradient>
</defs>
</svg>
