<svg width="388" height="43" viewBox="0 0 388 43" fill="none" xmlns="http://www.w3.org/2000/svg">
<path d="M38.1459 21.356C38.2235 24.5478 37.543 27.7125 36.1605 30.5904C34.9101 33.0912 33.1139 35.2793 30.9046 36.9929C28.7103 38.6821 26.2132 39.9359 23.5478 40.6867C20.8476 41.4735 18.0493 41.8725 15.2368 41.8718H0V1.04021H14.7751C17.652 1.04048 20.519 1.37883 23.3169 2.0483C26.0089 2.67023 28.5562 3.80408 30.8199 5.38809C33.0853 7.01357 34.9209 9.16612 36.1682 11.6598C37.5892 14.6885 38.2673 18.0126 38.1459 21.356ZM27.8803 21.356C27.9491 19.3809 27.562 17.4165 26.7491 15.6152C26.0666 14.1714 25.0351 12.9204 23.7479 11.9753C22.465 11.0571 21.0137 10.4007 19.477 10.0438C17.8614 9.65654 16.2055 9.46279 14.5442 9.46663H9.63459V33.3607H14.3134C16.0351 33.3676 17.7511 33.1634 19.4231 32.7528C20.9818 32.3915 22.4523 31.7216 23.7479 30.7828C25.0369 29.8172 26.0678 28.5484 26.7491 27.089C27.5582 25.2892 27.9452 23.3282 27.8803 21.356Z" fill="black"/>
<path d="M95.4225 41.9026L86.5266 25.6885H83.1638V41.9026H73.5292V1.04023H89.1123C91.0422 1.03537 92.9669 1.2392 94.853 1.64816C96.6394 2.01647 98.3428 2.71034 99.8781 3.69513C101.359 4.66661 102.577 5.98816 103.426 7.54281C104.365 9.35878 104.821 11.3863 104.749 13.4298C104.833 15.9489 104.038 18.4189 102.502 20.4171C100.89 22.3734 98.7131 23.7843 96.269 24.4572L106.966 41.9026H95.4225ZM95.0223 13.5683C95.0517 12.7556 94.8402 11.9525 94.4144 11.2597C94.0277 10.6744 93.498 10.1976 92.8753 9.8745C92.2017 9.53536 91.4759 9.31165 90.7283 9.2127C89.9641 9.09765 89.1925 9.03849 88.4197 9.03571H83.1099V18.5318H87.8041C88.6394 18.5303 89.4733 18.4608 90.2974 18.324C91.0991 18.2055 91.8778 17.9641 92.606 17.6083C93.2958 17.2646 93.8845 16.7475 94.3143 16.1077C94.7952 15.3504 95.0341 14.4647 94.9992 13.5683H95.0223Z" fill="black"/>
<path d="M140.648 41.9026V1.04021H168.121V9.3512H150.175V17.0466H167.105V24.9959H150.175V33.4608H169.159V41.9257L140.648 41.9026Z" fill="black"/>
<path d="M232.184 41.9026L229.014 33.8609H213.2L210.199 41.8795H199.464L216.601 1.01715H226.182L243.173 41.9026H232.184ZM221.219 11.9523L216.024 25.9732H226.297L221.219 11.9523Z" fill="black"/>
<path d="M312.47 41.9026L312.701 12.9911H312.524L301.904 41.9026H294.979L284.651 12.9911H284.474L284.705 41.9026H275.417V1.04021H289.461L298.757 27.2429H298.988L307.891 1.07868H322.166V41.941L312.47 41.9026Z" fill="black"/>
<path d="M380.974 11.6598C380.087 10.5532 378.951 9.6724 377.658 9.08958C376.424 8.49025 375.074 8.16724 373.702 8.14305C373.034 8.14303 372.367 8.19966 371.709 8.31235C371.068 8.41825 370.452 8.64268 369.893 8.97415C369.359 9.29959 368.898 9.73187 368.539 10.2439C368.152 10.8346 367.961 11.5318 367.992 12.237C367.968 12.8434 368.117 13.4443 368.423 13.9684C368.745 14.4677 369.18 14.8842 369.693 15.1843C370.322 15.5767 370.99 15.9042 371.686 16.1616C372.455 16.454 373.317 16.7542 374.279 17.062C375.664 17.5237 377.109 18.0367 378.612 18.601C380.073 19.128 381.452 19.8614 382.706 20.7788C383.949 21.7078 384.995 22.8744 385.784 24.211C386.639 25.7745 387.056 27.5398 386.992 29.3207C387.041 31.4227 386.59 33.5064 385.676 35.4C384.856 37.0651 383.663 38.5187 382.19 39.6479C380.686 40.7826 378.981 41.6233 377.165 42.1258C375.269 42.6529 373.308 42.9119 371.34 42.8953C368.448 42.8961 365.581 42.3747 362.875 41.3562C360.303 40.442 357.973 38.9522 356.064 37.0006L362.528 30.4211C363.613 31.7172 364.961 32.7667 366.484 33.4993C367.988 34.2974 369.66 34.7248 371.363 34.7459C372.08 34.7473 372.794 34.6699 373.494 34.515C374.143 34.3747 374.759 34.1137 375.31 33.7455C375.836 33.3964 376.265 32.9199 376.557 32.3603C376.88 31.7165 377.039 31.0027 377.019 30.2826C377.04 29.5837 376.838 28.8963 376.442 28.3203C375.978 27.7541 375.408 27.2836 374.764 26.9351C373.926 26.4346 373.036 26.0269 372.109 25.7192C371.047 25.3601 369.844 24.9677 368.5 24.5419C367.189 24.1183 365.904 23.6172 364.652 23.0413C363.432 22.4636 362.308 21.7005 361.32 20.7788C360.322 19.8483 359.519 18.7288 358.958 17.4852C358.321 16.0017 358.016 14.397 358.065 12.7833C358.006 10.7535 358.484 8.74411 359.45 6.95796C360.344 5.37175 361.586 4.00885 363.083 2.97177C364.622 1.90209 366.343 1.11994 368.161 0.663158C370.032 0.202736 371.953 -0.0196236 373.879 0.00135714C376.281 0.0218909 378.662 0.451271 380.92 1.27109C383.263 2.07924 385.415 3.35712 387.246 5.02643L380.974 11.6598Z" fill="black"/>
</svg>
