<svg width="24" height="24" viewBox="0 0 24 24" fill="none" xmlns="http://www.w3.org/2000/svg">
<g clip-path="url(#clip0)">
<path d="M23.3608 3.89483L20.0881 0.619361C19.2635 -0.205925 17.8291 -0.20751 17.0013 0.620946L2.34016 15.4267C2.27517 15.4923 2.22828 15.5728 2.20271 15.6613L0.0209365 23.3041C-0.03337 23.4944 0.0198626 23.6997 0.159975 23.8399C0.263833 23.9439 0.402872 23.9999 0.545644 23.9999C0.595706 23.9999 0.646331 23.9929 0.695319 23.9791L8.33162 21.7954C8.42004 21.7698 8.50047 21.7229 8.56598 21.6578L23.3608 6.98264C23.7731 6.57002 24 6.02194 24 5.43873C24 4.85553 23.7731 4.30745 23.3608 3.89483Z" fill="black"/>
<path d="M6.1462 17.0784L5.39389 15.5733C5.30118 15.3884 5.11264 15.2718 4.90595 15.2718H4.03244L14.6211 4.58789L16.6289 6.5957L6.1462 17.0784Z" fill="#FFCA28"/>
<path d="M8.42258 18.6022L6.91744 17.8499L17.4001 7.36719L19.4079 9.37499L8.72408 19.9636V19.0901C8.72408 18.8834 8.60739 18.6949 8.42258 18.6022Z" fill="#FFCA28"/>
<path d="M17.7708 1.4108C18.1831 0.998485 18.9011 0.998485 19.3135 1.4108L22.5862 4.6835C22.7923 4.88963 22.9058 5.16341 22.9058 5.45479C22.9058 5.74616 22.7923 6.01994 22.5877 6.22449L20.1827 8.60809L15.3888 3.81424L17.7708 1.4108Z" fill="#D32F2F"/>
<path d="M5.75624 18.4895C5.70352 18.4631 5.53865 18.2983 5.51227 18.2456L4.57213 16.3652H3.13873L1.92471 20.615L3.44616 22.0602L7.63661 20.8631V19.4297L5.75624 18.4895Z" fill="#F2F2F2"/>
<path d="M3.44605 22.0612L1.92465 20.616L2.05034 20.1758L1.33986 22.6629L3.82691 21.9524L3.44605 22.0612Z" fill="#666666"/>
<path opacity="0.1" d="M7.6365 19.4312L5.75618 18.4911C5.70345 18.4647 5.67543 18.4104 5.63422 18.3691L1.33986 22.6635L7.6365 20.8647V19.4312Z" fill="black"/>
<path opacity="0.1" d="M20.9531 3.04883L17.7891 6.21287L20.186 8.60983L22.5911 6.22622C22.7956 6.02168 22.9091 5.74789 22.9091 5.45652C22.9091 5.16515 22.7956 4.89136 22.5895 4.68523L20.9531 3.04883Z" fill="black"/>
<path opacity="0.1" d="M8.42583 18.6061L6.92069 17.8538L17.4034 7.37109L19.4112 9.3789L8.72733 19.9675V19.094C8.72733 18.8873 8.61064 18.6988 8.42583 18.6061Z" fill="black"/>
<path d="M23.3608 3.89483L20.0881 0.619361C19.2635 -0.205925 17.8291 -0.20751 17.0013 0.620946L2.34016 15.4267C2.27517 15.4923 2.22828 15.5728 2.20271 15.6613L0.0209365 23.3041C-0.03337 23.4944 0.0198626 23.6997 0.159975 23.8399C0.263833 23.9439 0.402872 23.9999 0.545644 23.9999C0.595706 23.9999 0.646331 23.9929 0.695319 23.9791L8.33162 21.7954C8.42004 21.7698 8.50047 21.7229 8.56598 21.6578L23.3608 6.98264C23.7731 6.57002 24 6.02194 24 5.43873C24 4.85553 23.7731 4.30745 23.3608 3.89483Z" fill="url(#paint0_linear)"/>
</g>
<defs>
<linearGradient id="paint0_linear" x1="4.94384" y1="9.76614" x2="19.1286" y2="16.3779" gradientUnits="userSpaceOnUse">
<stop stop-color="white" stop-opacity="0.2"/>
<stop offset="1" stop-color="white" stop-opacity="0"/>
</linearGradient>
<clipPath id="clip0">
<rect width="24" height="24" fill="white"/>
</clipPath>
</defs>
</svg>
